<svg xmlns="http://www.w3.org/2000/svg" version="1.1" xmlns:xlink="http://www.w3.org/1999/xlink" xmlns:svgjs="http://svgjs.dev/svgjs" width="1605" height="1605"><svg version="1.2" xmlns="http://www.w3.org/2000/svg" viewBox="0 0 1605 1605" width="1605" height="1605">
	<title>Patient-Zero_Logo</title>
	<style>
		.s0 { fill: #000000 } 
	</style>
	<path class="s0" d="m1198.6 446.3c73.4 115 145.5 238.6 183.8 370.3 43 147.6 18.9 296.5-54.9 430.3q-3.6 6.4-7.4 12.8-3.7 6.3-7.6 12.6-3.9 6.3-8 12.4-4.1 6.2-8.3 12.3-4.2 6-8.6 12-4.4 6-8.9 11.8-4.5 5.9-9.1 11.6-4.7 5.7-9.5 11.3-4.8 5.7-9.7 11.2-4.9 5.5-10 10.9-5 5.3-10.2 10.6-5.2 5.2-10.5 10.4-5.4 5.1-10.8 10.1-5.4 5-11 9.8-5.6 4.9-11.3 9.6-5.6 4.8-11.4 9.3-5.8 4.6-11.7 9.1-5.9 4.4-12 8.7-6 4.3-12.1 8.4-6.1 4.2-12.3 8.1-6.2 4-12.5 7.9-6.4 3.8-12.8 7.5-6.4 3.7-12.9 7.2-6.5 3.5-13 6.9-6.6 3.4-13.3 6.6-6.6 3.2-13.3 6.2-6.8 3-13.6 5.9-6.8 2.9-13.7 5.6-6.8 2.7-13.8 5.2-6.9 2.5-13.9 4.9-7 2.4-14.1 4.6-7 2.2-14.1 4.2-7.2 1.9-14.3 3.7-7.2 1.8-14.4 3.5-7.3 1.6-14.5 3-7.3 1.5-14.6 2.8-7.2 1.2-14.6 2.3-7.3 1.1-14.6 2-7.4 0.9-14.7 1.7-7.4 0.7-14.8 1.2-7.3 0.6-14.7 1-7.4 0.3-14.8 0.5-7.4 0.2-14.8 0.2-7.4 0-14.8-0.1-7.4-0.2-14.8-0.5-7.4-0.4-14.8-0.9-7.3-0.5-14.7-1.3-7.4-0.7-14.7-1.6-7.4-0.8-14.7-1.9-7.3-1.1-14.6-2.3-7.3-1.3-14.5-2.7-7.3-1.4-14.5-3-7.2-1.6-14.4-3.4-7.2-1.8-14.4-3.7-7.1-2-14.2-4.1-7.1-2.1-14.1-4.4-7-2.3-14-4.8-7-2.4-13.9-5.1-6.9-2.6-13.8-5.4-6.8-2.8-13.6-5.8-6.7-2.9-13.5-6.1-6.6-3.1-13.3-6.4-6.6-3.3-13.1-6.8-6.6-3.4-13-7-6.5-3.7-12.8-7.5-6.4-3.7-12.6-7.7-6.3-3.9-12.4-8-6.2-4.1-12.2-8.4-6.1-4.2-12-8.6-5.9-4.4-11.8-9-5.8-4.5-11.5-9.2-5.8-4.7-11.4-9.5-5.6-4.8-11-9.8-5.5-4.9-10.9-10-5.3-5.1-10.6-10.3-5.2-5.3-10.3-10.6-5.1-5.4-10.1-10.8-4.9-5.5-9.8-11.1-4.8-5.6-9.5-11.3-4.7-5.7-9.2-11.5-4.6-5.9-9-11.8-4.4-5.9-8.7-12-4.2-6-8.3-12.2-4.1-6.1-8.1-12.4-3.9-6.2-7.7-12.5-3.8-6.4-7.5-12.8-3.6-6.4-7.1-13-3.5-6.5-6.8-13.1-3.3-6.6-6.5-13.3-3.2-6.6-6.2-13.4-2.9-6.8-5.8-13.6-2.8-6.8-5.5-13.7-2.6-6.9-5.1-13.9-2.5-6.9-4.8-14-2.3-7-4.5-14.1-2.1-7-4.1-14.2c-20.4-71.2-29.2-146.2-18.6-219.9 38.9-271.4 321.2-601.1 456.2-843.9 3.6 9.2 1.4 486.3 0.9 542.9-92.1 37.9-172.9 110.7-212.4 202.8-42.6 99.5-43.3 206.5-3.1 306.9 37.4 93.1 116.5 167.5 208.2 206.4q8.6 3.6 17.4 6.8 8.7 3.1 17.7 5.9 8.9 2.7 17.9 5 9.1 2.3 18.2 4.2 9.2 1.8 18.4 3.2 9.2 1.5 18.5 2.4 9.3 1 18.6 1.5 9.3 0.5 18.7 0.6 9.3 0.1 18.6-0.3 9.4-0.4 18.7-1.3 9.3-0.8 18.5-2.1 9.2-1.3 18.4-3 9.2-1.8 18.3-3.9 9-2.2 18-4.8 9-2.7 17.8-5.7 8.8-3.1 17.5-6.5 8.8-3.6 17.5-7.5 8.6-4 17-8.4 8.5-4.4 16.7-9.2 8.2-4.8 16.2-10 7.9-5.2 15.6-10.8 7.7-5.6 15.2-11.6 7.4-5.9 14.5-12.2 7.1-6.4 13.9-13 6.8-6.7 13.2-13.7 6.5-7 12.6-14.3 6.1-7.3 11.8-14.9 5.8-7.5 11.1-15.4 5.4-7.9 10.4-16 4.9-8.1 9.5-16.5 4.5-8.3 8.7-16.9 4.1-8.6 7.8-17.3 3.7-8.7 6.9-17.5 3.3-8.9 6.1-17.9 2.8-8.9 5.2-18.1 2.4-9.1 4.3-18.3 1.9-9.2 3.4-18.5 1.5-9.3 2.5-18.7 1-9.4 1.6-18.8 0.5-9.4 0.6-18.8 0.1-9.4-0.2-18.8-0.4-9.4-1.2-18.8-0.8-9.4-2.1-18.7-1.3-9.4-3-18.6-1.8-9.3-4-18.5-2.2-9.1-4.8-18.2-2.6-9-5.7-17.9-3.1-8.9-6.6-17.7c-41.4-101.5-116.8-173.3-217.2-215.6-3.6-78.2-1-157.3-1-235.6 0.1-102.8-1.6-205.7 0.8-308.4 32.6 60.8 71.5 118.5 109.6 176z"></path>
</svg><style>@media (prefers-color-scheme: light) { :root { filter: none; } }
@media (prefers-color-scheme: dark) { :root { filter: invert(100%); } }
</style></svg>