<svg version="1.2" xmlns="http://www.w3.org/2000/svg" viewBox="0 0 3294 550" width="3294" height="550">
	<title>Patient-Zero_Logo</title>
	<style>
		.s0 { fill: #ffffff } 
	</style>
	<path id="Patient Zero" fill-rule="evenodd" class="s0" d="m710.6 176.5l2-4.1h5.3l-7.3 5.4zm-120.4 5.3l2-2.1h27.2l1.1 1.1 1-1.1h26.2v1.1l-2 3v1.1h1l3-2.1h2.3q2 0 2 5.4l3.1 1v140.4h-1l-1-1.3h-1.1l-1 1.3v1l4.1 4.1v9.4h-2l1-1v-1h-3.1q0 7.8-5.3 12.5h-5.1v5.3q3.1 0 3.1 5.1h2q1.6 0 4.3-8.4l5.1-1v117.4l-2 2.1h-2.1l-4.3-3.1h-1q0 3.1-2 3.1h-4.3q-2.1 0-2.1-3.1h-6.1q0 3.1-12.7 3.1h-5.2l-4.3-1-4.1 1h-13.7l-3-3.1v-2.2q6.3-17.7 10.4-17.7v-1.2l-2.1-2v3.2l-5.3-1.2v3.3l-1 5.1h-2v-104.7q0-2.1 9.4-2.1l2-3-2-3.3v-6.2l2-3.3v-3h-1q0 2.6-5.1 4.1l1 1.2-2.3 10.5h-2l-2-2.3v-57.6h5.3v-2l-2.3-2.1-3 1v-78.5l2-2h2l3.3 2v-1l-2-3.3v-2l1-1v-1.1h-6.3zm77.4 0l2-2h45.1q59.1 0 85.8 32.4l1-1.1v1.1l-1 1q18.8 28.7 18.8 59.8v4.1q0 35.9-18.8 58.7h-2.1v1l1 3.3-7.3 6.1h-1.1v-2h-2l-1 3 1 3.3q-21.7 23-95.2 23h-24.2l-2-2.1v-26.2l2-3.1-2-2v-19.9l2-2.3h39.9q5.4 0 9.5 3.3h3v-1l-1-3.3q31.3-10.3 31.3-41.8v-5.3q-6.9-34.5-37.6-34.5 0-2.2-6.2-2.2l-10.6 1.2-1.1-1.2v-1.1l-7.1 3.3-5.3-1v-1.2l1-1.1v-1h-2.1l-4.3 3.3h-9.4l-2-2.3zm-60.7 1.1l-3.2 4.3h2.2l2.1-2.3v-2zm-6.4 12.5l-3.1 3.3 9.5 1 1-1v-3.3zm193.7 5.3l3.1-4.1h2q0 2.1 3.1 2.1v3h-2q-2.1 0-2.1-3h-1v2zm-190.7 19.9h-4.1l1.1 1v1l-1.1 1.1v1.2l5.4 2h1v-1zm-7.2 4.3h-3.3l1.1 5.1 2.2-2zm99.3 2h-3l2 2.1 1-1zm-81.5 4.1h-2.2l1 1-1 1v3.3l5.3-1h3.1v-1.1l-3.1-3.2h-1l-1 1zm77.4 6.3l2-2v3.1h-2zm-80.7 1l-3.1 1v6.4l1-1.1h1.1l1 1.1v5.1l-2.1 2.2h-2q0-3.2-5.3-3.2h-4.1v2q8.4 0 14.5 12.7h5.3v-1q-5.1 0-7.3-5.3 0-6.4 7.3-6.4l-2-6.1q-4.3 0-4.3-7.4zm150.7 7.4h-4.1l1 6.1h2.1l-1-1v-1zm-139.3 4.1h-1v1l1 1-1 1.2v2.1l3.3-1v-2.3zm159.1 4.3h-3.1l2.1 2.1 1-1.1zm-170.6 16.6h-1v1.3l3 5.1h5.4zm43 6.4h-1.1v2h3.1zm138 0h-4.1v2.1h6.4v2.2h1v-2.2zm-103.6 50.2l8.4 3.2 1-1v-1.2q-1.4 0-3.1-4.1l-1-1h-2q-1.7 0-3.3 4.1zm-18.8 2.2v1h6.3q0 6.4 9.4 9.5l1-1v-1.3q-6.1 0-6.1-7.2l2.1-2.2-3.3-3.1-3.1 1v-1q-6.3 2.5-6.3 4.3zm-26.1 0h-2.2l1.2 1v3.1q0 2.1-3.3 2.1l-1 1v1h5.3zm73.2 0h-4.1v2.1l2 4.1 4.3-1.1zm-78.4 2.1l-8.4-1-1 1v3.1l1-1.1 5.3 1.1zm-11.5 6.1h-2v9.4l2 3.3q6.4-1.4 6.4-3.3v-1l-5.3 1-2.1-3v-1.1zm70.1 4.4v3h-2.1v-3zm8.4 4.1v1h-5.1v-1zm-5.1 3.2h-2.3v3.1l2.3-2zm-58.8 3h-6.2v2.1l4.1 4.3h1.1v-1h-2.1v-1.3zm-36.4 5.4l-2.3 2v1h1l2.3-2v-1zm6.1 9.4h-3v1q2 2.5 2 7.2l1-1h1.1l4.3 3.2v-3.2zm-1.1 12.5l-2-2.1v3.1h2zm29.3 3.1h-1v3.2l2 2.1h1.1v-3.3zm-15.6 1v2.3h-6.3v-2.3zm12.4 4.3h-1l-2 5.2v2.2q4.1-2.2 4.1-6.3zm-24.2 2l-3.1 3.1h1.1q4.3-1.4 4.3-3.1zm-2.1 5.3h-1l-3.1 7.2 3.1 2.3 8.4-2.3v-1q-7.4-2.7-7.4-6.2zm19.9 5.2l-2.1-2.1-1 1v1.1zm17.8 3l-5.1 1.3h-8.4q0 2 10.4 4.1h1.1l2-2.1zm-21.9 18.9h-1v3.3l2 2h1.1l2-2q-4.1 0-4.1-3.3zm22.9 7.4h-1v3.2l3.1 1.1 1.2-1.1v-1.2zm-5.1 7.4q0 6.3-3.3 6.3l-6.1-1q0 3.1-2.3 3.1v1l5.3 2.1q5.4-2.1 5.4-4.1h1l1 1h1q0.2-4.3 2.1-4.3-0.8-3.1-4.1-4.1zm-42 5.3l-2 2.1v1h4.1v-3.1zm15.7 12.5l-2 2.1q7.2 2.6 7.2 6.3h1.2q5.1-4.3 8.2-4.3l-2.1-2h-9.4zm28.3 2l-2.1 2.1v6.3h1l2.1-4.1zm4.1 2.1l-2.1 2.2v1l2.1-2.2zm-43.8 6.3l-2.3 2.1 1.2 3.3q4.7-2.1 5.2-4.3v-1.1zm308.6-284.4h75.9l103.9 293.9h-75.8q-17.2-62.5-19.7-62.5h-81.3l15.8-54.4h50v-1q-20.9-65.8-30.3-108.2h-1.1q0 12.3-41.5 151.1-11.9 41.4-15.8 47.9h-2v2.1l2 3-6.1 22h-1.1l-3-1.1-5.4 1.1h-5.1l-3.3-1.1-5.1 1.1h-13.5l-6.3-1.1-3.1 1.1v-1.1l-1 1.1h-12.5v-13.6l1-6.3-1-3.1 1 1h1l1-1v-1h-3v-13.5l2-2.1h2.1l3.2 1v-1l-1-3.1h-2.2l-1.1 1.1-3-1.1 1-8.4h1l8.4-27 3.1 2 1-1v-1l-3.1-2.3 6.2-18.6h1.2q0 2 3.1 2v6.4l2-2.3v-9.2q0-3.3 6.2-3.3v-1l-1-3.1h-2.1q-3.5 0-6.1 10.5h-2.1v-1l6.2-19.9h4.1v2h3.2v-3.1l-2.2-3 2.2-6.4-1-1h-1.2q0 7.4-2.1 7.4h-1l22.9-68.9h1.1v2.1h2l-2-3.1q1.2-8.4 4.3-8.4l-1.3-1v-1.1zm-18.8 90.6h-1v2.3l4.3 1v-1zm-15.6 33.4h-5.1v2l5.1-1zm-4.1 18.9h-2q0 6.1-4.3 6.1l1 1v1.1q-3.1 0-3.1 4.3h4.1q0-8.4 4.3-8.4zm-10.4 14.5h-3.1v1l2 2.1 1.1-1zm29 14.5l-2-2-1 1v1zm-10.3 12.5h-3.2q2.8 4.1 5.3 4.1v6.4h2l2.1-4.1q-2.1-4.3-6.2-6.4zm-14.7 6.4l-2.1 2v1l2.1-2zm-18.6 14.6h-4.3v1l5.3 2zm32.1 0h-1v4.1l1-1h1.3zm-19.7 6.1v2.1h-4.3v-2.1zm12.5 3.3l-3.1-3.3-1.2 1.1v1l3.3 2.3h1zm-4.3 7.1h-3.1v2.1h7.4v-1l-3.1-1.1v1.1zm-17.6 5.3l-1-1.2v4.3h3.1q0-2.1 3-2.1v-2.2zm-10.4 15.5h-4.1q0 2.1-3.1 2.1l2.1 2h1l4.1-2zm2 3.1v2q-4.1 0-4.1 3.3h4.1v-2.3l3.3-1-1-3.1-1.2 1.1zm44.8 7.3q0 2.1-3.1 2.1 4.1 3.7 4.1 7.2h1.1l2-2.1v-1q0-5.1-4.1-6.2zm-15.6 2.1h-3.2v1l1.2 3.1h2zm-5.3 9.4l-3.1-1-2 8.2 2 6.3-7.3 3.1 1.2 3.1h2q0-2.3 4.1-4.1h5.2v2q2.8 0 4.3 6.4h3l-2-7.4q3.1 0 3.1-3.1l-2.1-6.3v-1h2.1v-3.1h-2.1l-2 2v1.1l1 9.4-9.4-7.4v-4.1l2-3.1zm-14.5 8.2l-2.1 2.1v1.2l5.1 2.1q0-2.1 3.3-2.1v-1.2l-2.2-2.1zm-18.7 7.4h-4.3v3.1q4.3-1.5 4.3-3.1zm484.4-278.7v8.2l-4.8 1.2q-2.8 0-7.7-7.4h-1.1v-3.7h7.6zm0 18.7v23.8l-1.8 5.5h1q0.4 0 0.8 0v9h-2.6l0.8-6.1v-1.1h-0.8l-3.3 7.2h-11.7v-2.7h-2q0 2.7-1.9 2.7h-47.1q0-3.5-6.9-3.5l-1.1 0.8-1.8-2.6v-2.7q0-1.8 4.9-1.8v-1.1q-4.9 0-4.9-2.6v-4.5l1.8-1.9h4.1q0 2.7 2.1 2.7l4.9-0.8-1-1.1v-0.8l-1.1 0.8h-2.8l-2.1-1.8v-2.9q1.9-4.5 8.6-4.5h1.3l1 2.9 5.7-1.9q0 3.5 4.9 3.5v7.4h4.1v5.5l0.8 1.1v0.8q3.1 0 3.1-3.7l6-0.8-0.9-1v-0.9l-1 0.9h-2.2l-2.9-2.7-1-3.7h-2.9l1-1v-1.9l-5.9-1.6 1.8-3.7h-1.8v-9.2h3.9l4.9 0.8q0-2.7 1.8-2.7h4.3l0.9 2.7q-7 1.6-7 7.6h1q2.9-4.7 6.8-4.7l2 1.6-1 1v4.7h5.9q2.1 0 2.1 2.7h2q0-5.3 5.6-5.3l-0.9-1v-1.1l1.9-8.2-1-0.8h2q0 2.7 2.1 2.7h3v-1.9h-2l1-4.7v-1.6h-1v1.6h-1.9l-1.2-3.5h5.1v2.7h3.9l1-0.8h0.9q1.6 3.5 5.9 3.5v2.8l-2.9 2.7-2.2-1.6-5.5 1.6v1.8h3.8v1.1l-2 1.6-1-0.8h-0.8v1.8l1.8 5.6h2q0-5.2 6.8-11.9zm-9.6 17.4l-1-1h-0.9l-3 2.8 1 1.1v1.6q0 4.5-4.1 4.5v2.9h1.2q4.3-3.7 6.8-11.9zm-6 14.8l-2-1.9v3.5zm-10.7-52.5h9.9v1.9l-5.1 1-6.8-1zm8.6 41.4v-0.8h-2.1q0 1.6-3.6 1.6v1.8l4.7-2.6zm-2.1-32.2q0 2-9.6 5.5v0.8l4.9 1.1q0-2.9 2.1-2.9l0.8 4.7-2.9 4.5v1h-2.9l-2-1.8v-4.5q-4.5 0-7-2.9v0.8l-0.8-0.8h-0.8l-6.1 1.9-2.1-2.9 3.1-2.7v-0.8l-2.1-1.8q-7.3 0-8.8 6.3h-1l1 0.8v1.1l-2 1.8h-6.8q0-4.7-2-4.7h-0.9q-3.8 1.6-3.8 6.6 5.5 0 5.5 1.8h-0.8l0.8 2.7h1.2q2.1 0 2.1-2.7l0.8-1h3.1l2.8 1.8q0 7.4-6.7 7.4 0-1.6-5-1.6v-2.1h-3q-9.2 12.1-10.9 12.1-1.8 0-1.8 4.5l-1 0.8h-5l-4.9-0.8v0.8l1.9 4.7-1.1 0.9h2.1q2 0 2-3.7 2.1 0 2.1 4.7h1l-2.2 5.3h1.2l3.9 1v1.7h-22.8l-6.7-0.8-8.8 0.8h-64.9q-3.5 0-8-3.5h-1.9l0.9 0.8v2.7h-0.9l-1-0.8-4.7 0.8h-12.7l-6.1-5.3v-4.6l2-2.8 0.8 0.8h3.3l-2.2-5.3h-1.9v-5.6h4.1l1.6 3.7v1.1h1.1l2-1.9v-1q-2.6 0-5.9-5.6l1.2-5.5q6.6 1 6.6 2.9v4.5q2.8 0 2.8 4.7l6.2 3.5h0.8v-3.5h5.9v3.5l-4.9 5.5v1.9h1q0-4.5 6-4.5h1q0 3.6 4.9 5.5v0.8h-2v1.9h2.8l8-1.9v-1.8l-6.1-2.9-1.9 2-7.7-10 1-2.9h-1q-4.6 0-6-7.1 4.5-2.1 4.9-5.8h3.1l2 1.9v0.8l-1 4.7 1-0.8h0.9l5.7 1.8v-4.7l-1 1h-1.9v-2.8l4.1-1.9h1.1v-0.8q-7 0-7-1.8v-1.9l1-2.9h-1l-5.9-1.8 1-0.8v-0.8l-2.1-1.9q0 6.4-3.9 6.4l-4.7 1-1-7.4-1 0.8h-7q0 5.6-2 5.6h-6v-5.6q0-1.6 6-2.6 0-6.6 2-6.6h7v1.9h1q0-3.7 1.8-3.7h17.5l6.1 6.5v-6.5h1l2.9 1.8h3.1l2.8-1.8h58q1.8 0 1.8 2.8h1q0-2.8 2.1-2.8h21.7l1.8 1.8v1l-1 0.9v0.8h1l5-4.5h38.3v1.8l-1.9 1.9v-0.9l-3.1 0.9v2h5q1.8 0 1.8 5.3h1l2.1-6.5h2l1 1.2h1.1l1-1.2q1.6 3.5 5.5 4.7zm-4.7 35.9v-1.1h-2.9v1.9zm-6.9 2.6l2-1.8q-5.1 0-5.9-2.7l1-3.7-1-6.3h-2.7l2.7 12.7 1.8 1.8zm-17.6-41.2v-2l-2.8-0.8-1.1 0.8v1.2l2.9 1.9zm-2 46.7l-1.9-1.8-2 1.8v1.8h1l2.9-1zm-3.9-9.2v-0.8h-1.1l-2.8 0.8v3.7h2zm-7.8-35.7v-0.8l-1.2-1h-2.7l2.7 2.6zm-15.8 9.3l-7.9-4.7v2.6h-0.9l-1-4.5h-2v1.9h-3.9l-4.9 0.8-1.9-5.4h0.8l-0.8-4.7h-1l-1 0.9h-1.1l2.1 9.2h-2.1v1.8h7.2v4.7l3.7-0.8 2.9 0.8v6.4l-2.9 2.9-1-0.9h-1.9l-2 1.7h3v1.8l-4 3.7h-1.1l-0.8-1-1 1h-1l-5-1v1.8l7.8 1.1-0.8 1v1.8h0.8q0-1.8 5.1-1.8 0.5-4.7 2.9-4.7l8 3.7v-2.9h-2.2v-2.7l1.2-0.8v-1l4.9 1h0.8v-1.8l-5.7-0.9 1-1v-1l-3.1-1v-6.2h-4.1v-3.9h2.1v2.1h1l3.1-1.1v1.1q0 2 6.7 3.5zm-21.7 9l1.1-5.6q-5 0-5-1.6l1.1-2.9q-2.3 1.9-6.8 1.9v1.8q0 1.7 4.7 2.7l1-0.8 2.1 3.4h-2.1v1.1zm0 25.8v-2.9h-3.9q0 1.5 3.9 2.9zm-5.7-5.7v-1.7h-1l-2.1 1.7zm-1-38.4l-2.9-2.6h-2l-1 2.6 1 0.9h4.9zm-8.8 33.8v-3.5h-2.9v0.8l0.9 2.7zm0 8.4l-2.9-2.9h-1l-7 1v2.7q4.7 0 4.7 4.5 3.9-0.4 6.2-5.3zm-7.2-40.4l1-1h-1.8l-2.9 2.8 2 4.5h0.9l1.8-1.8zm1 27.5l-1.8-5.6h-1.9v3.7l2.7 2.9h1zm-6.5 10v-1l-4.1-0.8v1.8zm-6.2-37.5l1.1-2.6-1.1-1.1h-1v1.1h1l-1 0.8v1.8zm-3.9 3.5l2.9-2.7h-0.8l-2.9 2.7zm1 35.9l1.9-11.9h-1.9l-1 5.5h-0.8q-3.3 0-7-2.6h-1v1.6q0 1.8 4.1 1.8l1 5.6zm-1.8-27.5l-1-2.6h-0.9v3.4h1.9zm-6-14.5v-3.1h-2v2.1l-1-0.9h-1.1l-2.8 0.9v-0.9l-1-2.8h-0.9v2.8q6.8 3.3 6.8 11.9h2l-2-8.4zm0 48.4v-2.7l-1-0.8h-3.1q0 2.7-3.9 2.7v2.6q4.5-3.7 7-3.7v1.9zm-13.8-43l-3-3.7h-3.9l5.9 4.5zm-5.9 40.3l1-2.6q-4.9 0-4.9-4.7h-1l-1.1 7.3zm-5.9-37.7v-4.5l-1.8 1.9 0.8 2.6zm-2.9-5.3v-1.8h-1l-1.9 1.8v0.8h1.9zm-7.2 4.5l1-3.7h-1l-1.6 1.9zm-11.7-7.2v-1q-2.9 0-2.9-2.9l-1.8 2.1-1-1.3h-1.9v4.8h1.1q2-1.7 6.5-1.7zm-4.7 12.7v2.7h-5.1l-1.9-1.9 6-1.6zm-7 33l-3.1-2.7h-0.8v0.9q0.8 5.5 2.9 5.5h1zm-12.7-53.3l1.9 1.8-1.1 1.1h-0.8l-2-1.9 1-1zm141.9 293.3h-66.7v-102.9l3-4.9-1-3.1v-1l1-1.2h-3v-8l2-2.3h3.1l1.2 1.2q0-11.2 4.1-11.2l-1-4.3 2-1.9h7.4v-2q4.1 0 4.1-2.1h-8.4l-5.1-1.2v1.2l-6.4 2.1h-1l-2-2.1v-38.9h2v4.9h2l2.3-5.9 5.1-2.1 1-1h-3l-3.1 2h-4.3l-2-2v-7.2l1-1q3 0 3-3.3l-4-5.9v-9.3h2v-5.1l-2-3.1v-1l2-2h4.3v2h-2.3v1h6.4v-3h12.5v5.1h1l6.4-5.1h5.1q2 0 2 3h6.4q0-3 2-3h7.4l2 2 3.1-2h6.4l2 2v8.2h-3.1q0-4.1-6.3-4.1h-1l1 3.1-5.1 6.1v1.1l6.1-5.2h2.3l3 3.1v1l-1 5.2q-6.3 1.4-6.3 3v1.1l6.3-3.1q2.1 0 2.1-5.1h2v28.7l-3.1-1.1-2 1.9q3.1 0 5.1 4.3v45.1h-2v-4.1h-5.4l7.4 8v12.3q-3.1 5.3-7.4 5.3 0 1.8 3.3 1.8v5.4l-2 2h-6.4v-6.3q0-2.1 3.1-2.1l-2.1-2.9q-3.4 5-8.4 5v2h-6.1l-1 1 2 3.3 3.1-2h5.3q2.1 0 2.1 5.9 4.1 0 4.1 4.3l5.3-3.3h5.1zm-8.4-54.7h1l2.3-6.1-1-3.1h-2.3zm4.3-24.4h1l1.1-5.3-4.1-1.1v1.1zm-52.3-11.3v4.9h-2v-4.9zm29.3 0q6.3 0 11.5 4.9l1-1q-1.3-3.1-10.5-6.2zm-18.8 0h2v-4.3l-2 2.1zm-18.8-4.3q8.3-1.5 8.3-3.9h-3zm25-2.1h2.2l1-2.8v-1.1h-3.2zm39.7 1.1h-2.1l-1-1.1 1-7.1v-2.1h2.1zm-35.4-15.1h2q1.4 4.9 3.1 4.9 0-5.6 5.3-9.2v-3.9l-10.4 7.1zm-26.3-1q2.9 0 6.4 3.1h1l3.1-5.3-3.1-3.1h-1q-3.1 4.1-6.4 4.1zm17.9 3h2q0-2 3.3-2v-1h-2.3v-1.3l1.1-4.9q6.3-2 6.3-4.1v-1.2l-4.1 1.2h-1l-1.2-1.2q0-4.1-2.1-4.1v-5.9h-1l-1 5.1-5.2-1h-1l-2.2 1.8v1l2.2 5.4h3.1l5.1 1v2l-3.1 2.9zm35.5-6.4l6.3 1.1v-3.1h-6.3zm-11.5-13.1l6.4 4.9h1v-2.1q-7.4-2-7.4-5.9h-3.1v3.9zm-45.8 1.8v-1l-1.1-0.8v-9.4h2.1q0 3 4.3 5.3 0 5.3-5.3 5.9zm50.1-9.2l4.1 1q0-1.4-4.1-3zm-22.9-3.9l4.1 3.9 1-2.9h-1l-1-1zm10.4 0h3.1l1-1.1q0-3 3.1-3v-2.3q-7.2 3.7-7.2 5.3zm-13.7-9.2q0 1.9 11.5 2.9-5.2-3.3-5.2-8h-2q0 4.1-4.3 4.1zm19.9 0l3 0.8v-0.8l1.3-1h-4.3zm-34.4 0q4.3-1.5 6.3-5.1h-3.3q-5.1 0-5.1-5.2h-1q0 2.9-3.3 2.9v3.3l1 1 3.3-1q2.1 0 2.1 4.1zm36.4-14.4q0 4.1 9.4 7v-3.9q-8 0-8.4-4.1h-1zm-28.1 3.1l2.1 1.8h2l-2-1.8zm41.8-2.1h3l-1-4.3h-3.3zm-35.6-10.2h1v-1l-1-3.1h-3.1q0 2 3.1 2zm-10.4-6.3l2.2 2.2h3.1l-2.1-2.2zm11.5-19.5l5.3 3.3v-2.1q-3 0-3-2h-2.3zm11.5 3.3q2.2-0.4 4.3-5.2l-1-5.1h-5.4v1q4.3 0 4.3 3.1v2.1l-2.2 3zm-19.7-4.1h3.1l-2.1-2h-1zm6.2-10.3h5.3v-2h-3.3zm-9.4-6.2l4.3 2.1 1-4.1-3.1-1zm35.7-2.1v2.1h-3.3v-2.1zm107.3-74.4l2.1-2h62.6l2.1 2v24l-2.1 2.3h-2q0-2.7-5.4-6.4v-2.1h-1l-1 1.1h-1l6.3 9.4-5.3 4.1h1l9.4-5.1 1.1 1v130.6h-5.2l-5.3-3.3q0 4.3-4.1 4.3 0 6.1-2 6.1h-5.3l-3.1-2-2.1 3.3 1.1 1h6.1v2q4.9 0 8.4 5.2l2-3.1q-3 0-3-2.1v-6.3h6.3l2.1 2v5.4q-3.3 0-3.3 2 4.3 0 7.4 5.3v12.5l-7.4 8.2h5.3v-4.1h2.1v46q-2.1 4.3-5.2 4.3l2.1 2 3.1-1v29.1h-2.1q0-5.1-2-5.1l-6.4-3.1v1q0 1.7 6.4 3.1l1 5.3v1l-3.1 3.1h-2.2l-6.2-5.3v1.2l5.1 6.2-1 3h1q6.4 0 6.4-4.1h3.1v8.4l-2.1 2.1h-6.3l-3.1-2.1-2 2.1h-7.4q-2.1 0-2.1-3.1h-6.3q0 3.1-2.1 3.1h-5.1l-6.3-5.1h-1.1v5.1h-12.4v-3.1h-6.4v1h2.3v2.1h-4.3l-2.1-2.1v-1l2.1-3.3v-5.1h-2.1v-9.4l4.1-6.2q0-3.2-3.1-3.2l-1-1.1v-7.3l2.1-2.1h4.3l3 2.1h3.1l-1-1.1-5.1-2-2.3-6.2h-2v5.2h-2.1v-39.8l2.1-2.1h1l6.3 2.1v1.2l5.1-1.2h8.4q0-2.1-4.1-2.1v-2h-7.3l-2.1-2.1 1.1-4.3q-4.1 0-4.1-11.4l-1.3 1.2h-3l-2.1-2.3v-8.2h3.1l-1-1.2v-1l1-3.1-3.1-5.1zm22.9 3.1l-2-2.1-2.1 3.3h1.1zm10.4 7.4h-1v2l1 1h2.1v-1zm6.3 13.5l-7.4 3.3v1.1l12.5 5.1 1.1 1h1l-1-5.1v-2.1l2-3.3zm12.5 10.5h-4.3l2.2 2.3h2.1zm-45.9 2.2h-1.2v2.1l2.2 2 1.1-1v-1zm53 82.4h-1v9.4h2.2l1.1-3.1zm4.3 25h-1.1l-2 5.3v1.1l4.1-1.1zm-53.3 6.4v5.1h-2v-5.1zm29.3 5.1l2 2.3q9.2-3.1 10.5-6.4l-1.1-1q-5.1 5.1-11.4 5.1zm-16.8 0h-2.1v2.3l2.1 2zm-20.9 4.3l5.3 4.1h3.1q0-2.6-8.4-4.1zm27.2 2.1h-2.2v4.1h3.3v-1zm35.4-1.1h2v10.5h-2v-2.1l-1-7.3zm-31.4 15.5h-2v1.1l10.4 7.3v-4.1q-5.3-3.7-5.3-9.4-1.6 0-3.1 5.1zm-28.2 1.1v1.2q3.2 0 6.3 4.1h1l3.1-3.1-3.1-5.3h-1q-3.5 3.1-6.3 3.1zm19.8-3.1h-2l-1 6.3 3 3.1v2.1l-5.1 1h-3.1l-2.2 5.3v1l2.2 2.1h1.1l5.1-1 1 5.1h1v-6.2q2.1 0 2.1-4.1l1.2-1.2h1l4.1 1.2v-1.2q0-2-6.3-4.1l-1-5.1v-1.2h2.2v-1.1q-3.3 0-3.3-2zm39.8 5.3l-6.4 1v2.1h6.4zm-11.5 9.4l-6.4 5.1-3-1v4.1h3q0-4.1 7.4-6.1v-2.1zm-52.2 4.1v-1q5.3 0.6 5.3 6.1-4.3 2.3-4.3 5.4h-2v-9.5zm54.2 7.4l-4.1 1v2.1q4.1-1.7 4.1-3.1zm-22.9 1l-4.1 4.1h3.1l1-1h1zm9.5 4.1h-3.1v1q0 1.7 7.1 5.4v-2.3q-3 0-3-3.1zm-16.8 9.5v1q4.3 0 4.3 4.1h2q0-4.7 5.2-8.2-11.5 1-11.5 3.1zm22.9-1.1l-3.1 1.1v1h4.3l-1.2-1zm-37.5 1q0 4.1-2 4.1l-3.3-1-1 1v3.3q3.3 0 3.3 3h1q0-5.3 5.1-5.3h3.3q-2.1-3.7-6.4-5.1zm36.5 14.5v1.1h1q0.4-4.1 8.4-4.1v-4.1q-9.4 3-9.4 7.1zm-26-5.1l-2.1 2.1h2.1l2-2.1zm42.8 4.1h-3l-1.3 4.3h3.3zm-37.7 10.5h-1v2q-3.1 0-3.1 2.1h3.1l1-3.1zm-9.2 4.1l-2.2 2.3h3.2l2.1-2.3zm14.5 18.9l-5.3 3.2v1.1h2.3q0-2.3 3-2.3zm6.2 0v1l2.2 3.3v2.1q0 3-4.3 3v1.1h5.3l1.1-5.2q-2.1-4.9-4.3-5.3zm-16.6 4.3h-3.1v2.1h1zm8.4 10.4h-5.3l2.1 2.1h3.2zm-10.4 4.1l-4.3 2 2.2 3.1 3.1-1zm31.3 2v2.1h-3.2v-2.1zm14.5-122.1h2.1v10.4h-2.1v-2l-1-7.4zm-63.7 32.4v-1.1q5.3 0.6 5.3 6.2-4.3 2.2-4.3 5.3h-2v-9.4zm109.1-193.7v-1h35.4l2.1 2v28.1h-2.1q0-6.1-2-6.1l-2 2v2.1q0 2 6.1 4.3v32.1l-7.2-1h-1v1l8.2 3.3v12.5h-3.1v2.1q3.1 0 3.1 2v50q-4.1 0-4.1 7.4l1 1-3 2.1h-3.1q-2.1 0-2.1-5.4h-1.2q0 5.4-3.1 5.4h-5.1l-2-2.1v-4.3q3 0 3-2l-1-5.1-1 1h-1l1 1v3.1l-2.3 2h-3q-5.2-1.8-5.2-9.2v-1.2l3.1-1.1-2-6.1q4.1 0 4.1-5.3h8.4v-4.1h6.1l1.2-1.1h1.1q0-3-4.3-3l-1.1-6.4-1 1h-1l1 1.1v2.2l-3.1 3.1-4.3 1v3.1l-1-1h-2l-2.1 6.3-4.1-2.2v2.2h-10.4v-4.3l1-5.1q-3.1 0-3.1-2.1v-4.3l3.1-1q1.8 7.4 8.4 7.4v-1q-5.3-3.1-5.3-7.4l2-2.1 1 1.1h5.4v-6.2q0-2.2 3-2.2v-2.1q-6.1 0-6.1-6.1l-1 1h-1.3l-9.2-2.1-1 1.1v-2.1q3.1 0 3.1-2.2v-3.1h-2.1v2l-5.3-1h-2v1h2v2.1l-4.1 1.2v-5.3h3.1v-4.1l-1-1v-1.1q4.1-1.8 4.1-6.3h3.2l3.1 3.1-2 2.2 2 6.2h2v-4.1h1.1l2 2-1 1v1.1h2l6.4-2.1v-2q-5.9 0-13.5-7.4v-8.4h-2.1q0 2.4-4.3 6.3l-1-1h-5.1l2 7.2q0 3.3-8.4 8.4v1h-4.1v-8.2l2.1-7.4h-2.1v-4.1h2.1v3.1q7.8 0 8.4-4.1v-1.2h-1v2.2q-8.4-1-8.4-7.3l4.1-3.1h6.3l-1 5.1v2.1h1q0.2-4.1 2.1-4.1l-2.1-9.5 2.1-2v-1q-3.1 0-3.1-2.1l-1 1h-1.1l-3.2-3v-1.1q5.3 0 5.3-4.3l-1-1 1-1 1 1h3.1l5.3-1 1 6.3h1.1q3.4-3.2 6.1-3.2v-2.1l-4.1-1 3.1-9.5q-2.7 0-4.1-6.1l2-3.1 5.1 2.1 1.3-1zm-28.1-1.1h14.6v3.1h1q0-2.5 4.3-3.1l2 3.1v2.1q-3 0-3 3.2l-4.3 2.1-4.1-1q-2.1 4.7-4.1 5.1l-1.1-1h-1.2l-3.1 4.1 6.4 1.2v7.2q-4.3 0-4.3 3h-4.1v-11.4l1-9.3-1-7.3zm77 2l2.2-2h25l2.1 2-2.1 2.1v3.2h1.1q3 0 3-7.3h17.6l1.1 1 1.2-1h13.5q0.6 5.1 3.1 5.1l1-1h1l-1-1.1v-3h26v3l1-1 1.1 1h2v-1l-1-1v-1h37.5l2.2 2v50l-2.2 2.1h-27.1v-3.1q-2 0-2 3.1h-59.4l-3.1-2.1-3.1 2.1h-38.5l-2.2-2.1v-8.2l1-1.2-1-1v-32.2h2.2v-3.1h-2.2zm-32.2 7.4l-2-2.1-2.3 4.1h2.3zm14.5-1l-3 1q2 8.2 4.1 8.2l3-3q-2 0-2-5.2l-1-1zm29 3.1l-2 2 3.1 2.1 1-3.1-1-1zm-50 3.1l-3.1 3h1l3.1-3zm135.4 0h-1q0 4.3-6.2 4.3l-1-1.3-1 4.3h6.1l3.1-6.3zm-49 5.3l-3-2.2-1.1 4.3h2.1zm-71.9 0h-9.2v5.1h-1l-2.3-2.1 1-1h-3v6.2h-2.1v2h2.1q0-3.7 9.4-4.1 2.4-4.1 5.1-4.1zm47.9 2.1h-2v4.1l2-2.1zm62.5 2.1l-3.1 3h3.1zm-78 5.2l-1.1 1v1.2l1.1 1h1l1-1 3.1 4.1v6.2h1.2l3.1-1.1v-1q-2.9-6.8-9.4-10.4zm-50 3.2l-2 2.1v1h2l1-3.1zm-12.5 2.1l-6.3 2v2.1h1.2l5.1-1zm28.1 2h-2.1l1.1 5.1h-2.1v3.3h1l9.5-4.3h1v-1l-5.1-1h-3.3zm-25 1v3.1h-2v-3.1zm10.4 2l-2 2.1v1h2l2-2-1-1.1zm87.5 1.1h-4.1v2h2zm-31.1 2.1h-4.3v2.2h2zm54.1 0h-2l-2.1 6.4h1l3.1-3.1zm-112.4 3.3v3h-2.1v-3zm62.5 1h-1v4.1h1l1-3.1zm64.5 2.1h-2v2l2 2.1zm-100.9 2l-10.5 6.4h-6.1l-2.3-2.1-3.1 1v4.1l5.4 1.1 1-1.1 10.4 3.1v-1q0-2.1-3.2-2.1v-1l4.3-4.1h6.1l1-3.3-1-1zm-18.8 20.9l-1.1 1v1.1l3.3 3 1-1h2.1q5.1 0 5.1 4.3h3.3v-1.2q-4.3-4.5-13.7-7.2zm16.8 6.2l-2.1 2.2h4.1zm-59.4 11.5v-10.4h2.1l1 5.3-1 7.2zm46.9-9.3h-1.1v2.1q2.1 0 2.1 4.1h2l-3-5.1zm-36.5 2q2.3 0 6.2 10.5h1l1.2-5.4q-3.3 0-3.3-2l5.4-1 5.1 3h1v3.1l-2.1 2.3h-5.1q0 4.7-3.2 7.1h1l-1 1.1v1l2.2 6.3-3.3 2.1-3-3.1h-1.1l-2 2.1q0 8 7.2 9.4v1l1-1h1.2l2.1 2v7.2q-5.4 0-5.4 2.3v1q1.9 4.1 7.4 4.1 0-6.2 2-6.2v1.1l3.1-1.1v-1.2q0-2-3.1-2l-1-1.1v-3l2.1-3.1q8.4 0 8.4 7.2-2.1 0-2.1 5.3h-2.2v3.1q13.7 9.6 13.7 11.4 0 2.1 5.1 2.1l1 1v5.3l-1 5.2h1l5.4-2.1 1 1v-2q0-2.1-4.3-2.1 0-2.2 5.3-2.2v-1l6.1 2.2v-1.2l1.1-4.1h2v24l-1 7.4 1 9.2v68.8q0 3.7-4.1 8.4v2.1l1-1h3.1v1l-1 1 1 5.1v13.6l-6.1 6.3h-5.1l-3.3-2 1-1.1v-3.2l-6.1 2.2v2.1h-6.4v-4.3l4.3-2.1h1v-1l-2-2.1h-1.2q0 2.7-6.2 6.4l-6.3-1.2q1.2-7.2 3.2-7.2h5.2q0-3.1 5.3-3.1l4.1-6.3v-1.1h-4.1v-6.1h4.1l6.1 5.1h2.3v-1q-5.3 0-5.3-6.4v-1q4.3 0 6.3-5.1h1v2h2.1v-3l-2.1-8.4h-2l-3.3 6.3 2.3 2.1-11.5 8.2-3.3-1.1v1.1q0 4.7-8.2 6.3-2.2-4.7-6.3-5.1v-3.3l2-2h1l5.4 1-1.1-1v-1.1l2.1-6.1h-5.3l1.2 1v2.1h-3.3l-2-4.3v-1.1h-1.1q0 7.4-2 7.4h-2l-3.3-1v1l-2.1 6.2-1-1.1h-1l-2.1 2.3q7.4 0 7.4 4.1l1 5.1-8.4 1 1.1 1.1v7.3q6.3 0 6.3 2.1v6.3h-6.3q-1.9 0-3.1-6.3-7.4 0-7.4-2.1v-7.3h2.1v-1.1q-4.1 0-4.1-2v-18.7l7.3-6.3h-7.3v-1l2-3.1v-3.1l-2-3.3v-61.5q0-2 3-2v-1q-3 0-3-2.1v-22.9l2-2.1h1l1.1 1h1v-1l-5.1-5.3v-40.6h2l2.1 2.1h-1.1l1.1 3.2h2.2v-5.3q0-2 6.2-2v-1.1l-7.4-2v-2.3l1.2-1v-1l-1.2-1q3.9-1.9 5.3-6.2zm40.6 5.1h-1.1v3.1h2.1zm3.1 7.4l-2.1-2.1q0 5.4-3.1 6.2l-4.1-1-7.3 1v3.1l14.5-3.1 2.1-2.1zm24.9 18.7v-2.1q6.6 0 9.5 9.5l-1.1 1h2.1l1-1 1 1h1.3l3-3.1-5.3-5.3v-2.1h1l1.3 1.1h1l1-1.1 5.1 1.1h8.4l5.1-1.1v1.1l1.1-1.1h3.2l3.1 1.1 5.1-1.1h17.9l8.1 2.1 2.3-2.1h1l1 1.1 1.1-1.1h41.5l2.1 2.1v1h-1l-5.2-1-1 1v1l8.4 2.3 1-3.3h2.1v18.9q-7.6-1.1-11.5-5.4h-6.3v-2h-6.2q0-4.1-4.3-4.1v1q2.5 9.4 5.4 9.4 3 0 3 3.1l1 1h1.1q0-4.1 3.2-4.1l3.1-2 6.2 4.1h2.2l1-1h1.1l1 7.1v13.8l-1 1 1 1v1l-1 7.2-7.4-1-2.1 2.2h-2v-1.2l-7.4 1.2h-12.5l-1-1.2-1 1.2h-7.4l-1-1.2-1 1.2h-6.2l-4.3-1.2-4.1 1.2h-7.4l-2-2.2-8.2 2.2h-27.2q-2.1 0-4.1-6.3h-1l-2.1 3.1-3.3-1.1v1.1q0 3.2-5.1 3.2h-6.1v-2.2h5.1v-1l-1-1.1 1-3h1l1 1h1.1l1-1v-5.2q0-2.2-3.1-2.2l-1 1h-1l-3.1-1 1 1-1 1.2v1.1l1 3-2 5.2h-2.3v-12.5l1-1.1-1-1v-21.9h1q2.3 0 3.3 8.4h1q0-6.4 2.1-8.4v-1l-6.4-6.2v-3.3l1.3-1zm-71.7 0h-2.3l-1 3.3 1 1h1.3l2-3.3zm107.1 0l-2 2.1v1.2l3-1.2v-2.1zm5.4 0l-3.1 1.1v2.2h1l3.1-1.2v-2.1zm-59.4 2.1l-2 2.2 2 2.1h2.1v-1l-1.1-3.3zm100 0l-2.1 2.2q3.1 0 7.4 4.1 0-3 3.1-3 0 1.6 7.1 5.1v-2.1q-4.9 0-9.2-6.3zm-110.4 4.3h-1v1l1 3.1h4.1v-2.1zm67.8 4.1l-2.2-2v3.1h2.2zm-19.9 0h-2q0 5.7 5.1 8.4l5.3-7.4v-1h-1q0 2-4.3 2v2.1h-1v-2.1zm-88.5 4.1h-1l-1 1.2v3.1l3.1-3.1zm139.4 1.3l-3.1-1.3v2.3h5.2v-2.3l-1.1 1.3zm-32.1 3l-4.3-2v1l1 3.1h1zm53.1 0h-3.1l1 4.1h2.1l2-2.1zm-79.2 2.1v2h2.2q0 2.1 3.1 2.1v7.4h2l1.1-5.4q-6-6.1-8.4-6.1zm78.2 4.1v4.3h-1v-4.3zm20.7 2h-2.1l1 5.4 3.3-3.1zm-78 2.3h-3.1l2.1 3-5.2 2.1q0 1.6 4.1 3 0-1.6 5.2-3l1 1-1-4.1-1.1 1h-2zm45.9 1l-5.4 1.1v4.1l3.3 1zm-137.4 1l-5.3 8.4h3v1.1l-5.1 1v2h2.1v4.1l1 5.4-6.1 2v-1l-5.4 1v1l1 1.1v1l10.5-2.1v2.1h2v-7.4h5.4l-1.1-4.1 1.1-3.1h7.1l3.3 3.1-1 1v2.1l2 2.2v-3.3h2.1l4.1 4.4v1l-1 1 1 1v1.1l-1 5.1h2l1-8.2 1.3 1h2v-1q-2 0-2-5.4-5.4-0.6-5.4-3l4.1-8.4h-3v2.2h-3.1l-1-1.2h-1.1l1.1-5.1v-1.1h-2.1l-1 6.2-1-1h-1.3l-1 3.3h-7.2v4.1h-4.3v-2.1h2.3v-1l-1-3.3h1q2.5 0 4.1-7.2zm74.9 2.1l-5.3 2v1h1l5.4-1v-2zm71.8 1h-2.2v2l3.3 7.4h1v-6.3q-2.1 0-2.1-3.1zm-24.9 11.5l-4.3-1v3h1l3.3-1zm27-1h-2.1q0 3-2.2 3v2.1l4.3-2.1zm-138.6 9.5l-6.2-1q0 5.1-2 5.1l-3.1-1q2 2.4 2 7.3h2.1q1.8 0 3.1-5.3l-1.1-1 4.1-2.1v2.1h1.1zm29.2 0h-3v4.1q1.4 0 3-4.1zm-6.3 6.1h-2.1v1.1l2.1 2zm-43.6 1l-3.1 3.3v2.1l3.1 1 1-1v-5.4zm38.5 9.5h-4.1v3h1l3.1-1zm9.4 0l-3.3 3.1v1l1.3 7.4h3q0-5.1 5.2-5.1-0.7-4.1-6.2-6.4zm-45.9 7.4l-1-1v2l3.1 3.1 5.3-2.1v-1l-2.2-2zm31.1-1.1l-6.2 2.1v2h4.1l3.3-3v-1.1zm11.5 7.2h-1l-1.1 4.3h2.1zm-42.6 6.4l-3.1-1.1-1 1.1v1h1v-1l1 1h2.1zm4.1 4.1l-3.1-3.1v1l3.1 3.1zm40.7-1l-13.7-2.1v2.1l6.4 1v1q0 3.5-3.1 7.4v1h2q2.1 0 2.1-4.3l6.3-1zm-31.3 2.1l-3.1 1v1h4.1v-2zm-16.6 6.3h-3.2v2.1h2.2l-1 1v1l1 3.1h-1l-3.3 1v1h3.3q3.7-7.1 13.5-7.1v-2.1l-9.4 2.1zm55.1 0h-3.1l-1 1v3.1q3.1 0 3.1 4.1h3q-4.1-4.8-4.1-7.2h2.1zm-49 14.5l-4.1 3.1v4.1l5.2-6.1zm45.8 6.1l-3-1q0 5.3-5.4 5.3v1l8.4 1.1zm31.2 4.3l2.2-2.3h6.2l4.3 3.3q0-3.3 2-3.3h9.2v1.2l-1 1.1v1l1 1h1.2l4.1-4.3h35.5l3 2.3 4.1-2.3q3.5 1.2 4.3 4.3l-1 1 8.2 4.1v-2q-3.9 0-5.1-7.4h17.6q4.3 0 14.7 6.4l2.1-2.1-1-1v-3.3h13.5l2 2.3v8.2l-6.3 9.4h1l4.3-3.1h1v13.6l-1 1 1 1v1l-2 3.1 2 3.3v13.5l-2 2.1h-41.8v-1.1l4.3-1v-1h-2.2v1l-1.1-1h-3v3.1h-16.6l-5.4-4.1 3.3-6.4q-9.2-1-11.4-3.1l-7.4 3.1v3.1q3.1 0 3.1 3.3h-1.1l1.1 1v1l-2.1 2.1h-14.5v-1.1q0-2 3-2l-3-4.3h-5.2v-2.1h-6.3q0 5.4-6.1 5.4l-2.3-2.3v-7.2h3.3l-1-1v-6.3l1-1.1v-1q-3.5-3.1-6.4-3.1v-1l1.1-1-1.1-1v-1.1l2.1-3.3q-0.6-2.6-5.1-5.1l-4.3 2.1 1.2 5.1q0 3.5-3.3 7.4v2q0 2.5 5.3 3.1v2.3h-3.2q0 3 4.3 3v10.5h4.1v1l-2.1 2.1h-13.5q0-3.1-4.1-3.1l-1.2-1v-6.4l2.2-3.1v-4.1h-3.3v-8.4l6.4-5.3q0-3.1 4.1-3.1v-2h-4.1l2-10.5q2.1 0 2.1 3.1 4.3 0 4.3-4.1l1-1-1-1.1h-1.2zm-74 2.1h-5.1l2.1 2 3-1zm112.7 0l-2.3 2.1v2h2.3zm12.5 0h-2.3v1l3.3 1.1v-1.1zm-131.3 3.1h-2v1l2 2.1h1v-2.1zm152 0h-1v5.4l2-2.3zm-13.5 3.1h-4.1l2 2.2zm-71.8 7.4v-6.3h2.2l2.1 2.2v4.1zm-61.5-3l-4.1-1.1v1.1l2.1 2zm144.8 0h-2.1l-1 1v3.1h1q0-3.1 2.1-3.1zm34.4 2.1h-2.1v2l1 5.1h1.1l1-6.1zm-30.1 5.1h-1.2v2.1l4.3-1.1v-4.1zm-21.9-1h-2.1v6.4l1 1v1h-3.2q0 1.7 6.3 4.1v-1l-1-1v-1l1-1.1-3.1-1q0.4-5.3 3.1-5.3zm65.5 0h-1l-2 2q1 8 3 10.5l-4.1 6.3h2.1q0-2 3.1-2v-3.3l-1.1-5.1 4.1-1 1.3 1 1-1-1-4.4-5.4 1.3-1-1.3 1-1zm-93.8 4.3l-3-2.2v1l6.3 5.3 2.1-2h4.1l9.4 8.2 1-1v-1.1q-4.1 0-4.1-5.1l1-5.3-3 4.3h-2.3l-7.2-3.3zm48-2.3h-1.1v1.1l1.1 3.2h1v-1zm-155 4.3h-1.1q0 3.1-3.2 3.1l2.2 2.1-1.2 1v2h5.3v-1q-2-2.3-2-7.2zm149.9 0h-2.1v15.6q3.5 4.9 8.2 6.2v-1.1l-4.1-7.1 2.1-4.3-4.1-4.1zm16.6 1h-1.1v2l1.1 1.1h2v-1.1zm10.4 1.1h-2l1 1 1 1q2.1 0 2.1 4.1l3.3 1 1-1v-2.1zm-14.5 2.1h-2.1v3.1l-1 5.3h1l2.1-2zm-147.9 1h3.1v5.3l-2.1 2.1-2-6.4zm37.4 7.4l-3 3.1v1h1q6.1-1 6.1-3.1v-1zm78.1 7.2l2-2.1q5.7 0 8.4 6.4h1v2l-5.1 2.1h-2q0-4.3-4.3-8.4zm-31.2 6.3l4.1-3.1h3.1l4.3 4.1v1.1h-9.4zm-107.3 0l2-2.1 1.1 1v1.1l-2.1 2-1-1zm232.4-291.9h62.5q15.5 22.2 30.3 51.1h-2.3q10.3 9.8 18.9 26v2l-2.1 3.3q4.1 0.4 4.1 3.1l-1 1q9.4 1 9.4 10.5l-2 2h-11.5v2.1h-7.4v2h-6.1l-12.5 3.3v-1l-8.4 2-2.1-2h-3q0 3-2.3 3h-1l-8.2-14.5v-1h2.1q0 3 6.1 3l4.3-2 2 2 5.2-1v-2q-5.6 0-9.5-5.4l-5.1-1v-2h-3v2h-4.3q-3.1 0-3.1-6.1-4.5 0-15.6-22-31.3-50-34.4-58.4zm172.9 0h6.3l1 1 1-1h9.5l4.1 1 7.3-1h34.2l2.3 2.1v7.3h-5.3v2.1q5.3 0 5.3 2v74q0 2.1-4.3 2.1v1q4.3 0 4.3 2.3v178.1h-2.3l-31.1-55.2h2.1l-2.1-2.2-1 1.2q-29.3-45.9-29.3-53.3l-1-31.1v-29.3l2-3.1-2-2.1v-9.4l8.4-2v-5.4l2-3q-6.3 0-11.4-6.2v-40.8l-1.1-28.1zm42.8 7.4h-2v4.1l2-2zm-171.8 8.2l-2.2-2.1v1l2.2 2.1zm158.3 0l-2.2-2.1-1.1 1.1v1zm-203.1 78.3v-73h2l35.5 60.5q-2.1 0-2.1 3.1-6.3 0-6.3 7.1l-9.2-1v1q0 2.5-11.5 5.4l-2.1 2h-1.2l-4.1-5.1zm221.8-69.9l-4.1 2.1v1h2l4.1-3.1zm-15.5 4.1v2h-5.3v-2zm-10.5 5.3l-4.1-1v1l1 3.1zm30.1 17.6h-1v1.1h2.3q0 3.2 2 3.2h3.1v-1.2zm-17.6 8.4l-2.1 2.1 2.1 2zm-120.8 7.2l-3.1-3.1-1 1v3.3l2 2.1 2.1-2.1zm87.4 7.4v-1q4.3 1.4 6.3 5.1v2.2l-2 2.1h-3.3l-2-2.1v-5.3zm-89.5 2.1h-2.1v8.4q-4.3 0.4-4.3 3v1.1h6.4q0 6.3 4.1 6.3v-3.3l5.3 1.3h2.1l6.1-4.3-1-1.1v-1q0-2.6 4.3-3.1v-1h-11.5q-9.4-2.9-9.4-6.3zm143.7 2h-1v1l5.1 1.3h1.1v-1.3zm-135.4 10.5l5.1-4.1v4.1l-2 2h-1.1zm-55.2 7.4l3-3.1h2.3l3.1 4.1-3.1 2.1h-2.3zm-17.6 0l1-1q4.7 2 5.2 4.1l-2.1 5.3q2.1 0 2.1-3.3h6.3l3.1-2h1l2.1 2-2.1 3.3v1h2.1q5.3-2.2 5.3-4.3h3q6.2 4.3 6.2 10.5v1q-11.5 1-13.5 3.1h-11.5q0 2.2-5.1 2.2l-3.1 3.1-5.3-1h-3.1l-7.4 4.1h-3l-2.1-2.1v-9.4l1.1-1-1.1-1.1v-5.1h1.1l2 2.1-1 1v1l7.3 1q0-2 7.2-3l-1-5.4h6.3v-1l-2-5.1zm104 11.5v-2.1h1q7.4 7 7.4 12.5-2.6 0-3.1 4.1l3.1 2.1h1l-1-1.1v-3h3.1l102 171.9v2.1h-20.7l-6.4-2.1-2 2.1h-31.1q-4.9-3.9-71.9-117.9-25.4-39.7-27.2-45.7h2.2v-1h-2.2l-1.1 1q-7.1-11.2-7.1-14.7h8.2v2.2h5.3l5.1 1 1-4.3 5.3 1.1h6.2l6.3-4.1 3.1 2h1q0-5.1 9.5-7.2zm74.9 0h-3.1v2.1h1.1zm-13.6 5.1l-4.1-1-1 1v1l5.1 1.1zm-137.4 4.3v5.1h4.1l1-1h1.3q1 9.4 6.1 9.4l1-1 2.1 6.1v7.4h-4.1v2.1h4.1l2 147.9-1 1.1h-56.1l-4.3-1.1-4.1 1.1-1-1.1v-158.4q2.4-6.4 8.4-6.4 4.9 0 7.1-2h2.1q9.4 4.3 9.4 6.3l3.1-1q4.3 1 4.3 7.2h1l2.1-2.1v-2q-4.1-3.9-4.1-6.4h-5.4l-5.1-1v-2l3.1-3.1h13.5v2h4.3v-2l-1.2-1v-1.1zm8.4 3.1h2q4.1 1.7 4.1 7.2h-1q-5.1-2.1-5.1-7.2zm49.9 4.1v2.1h-3v-2.1zm-57.4 5.3l-3-2.2-1.1 5.3v3.1h1.1q3-1 3-6.2zm66.8 1.1l-3.3 1v1l4.3 1h1v-1zm2.1 4.1h-2.1v3.1l2.1-2.1zm14.5 6.2h3.1l3.1-5.1h-1.1q-2.6 0-5.1 5.1zm-1 0v1.2h-4.3v-1.2zm-113.4 2.3h-8.4q4.1 4.5 4.1 8.1h1q3.9-4 6.3-4v-2.1q-3 0-3-2zm22.7 2h-2.1q0 4.7-10.4 5.1v5.4h1q4.1-4.4 8.4-4.4 0-4 3.1-4zm17.8 6.1h-2v1l2 2.3h1zm-11.4 2.2v2.1h-6.4v-2.1zm102 0h-2.1l-1 3.1v1h1l2.1-2zm-124.9 3.1l-3.1-1.1-1 1.1v1h4.1zm8.4 7.2h4.1l2-2.1v-1q-6.1 1-6.1 3.1zm114.4 4.3l-2 2h3.1v-2zm-134.4 8.2h-3v2.2l2 2.1h1l-1-1.1v-1l1-1.2zm212.4 6.3h-3.1l2.1 2.1h1zm-85.4 10.4h-3.1v2.1h1zm76.2 87.5l-2-2-1.2 1v1zm-41.8 4.1h-2.1l2.1 2.1h5.3v-1.1zm299.2-282.8v8.2l-4.7 1.2q-2.9 0-7.8-7.4h-1v-3.7h7.6zm0 18.7v23.8l-1.9 5.5h1q0.4 0 0.9 0v9h-2.7l0.8-6.1v-1h-0.8l-3.3 7.1h-11.7v-2.6h-2q0 2.6-1.8 2.6h-47.2q0-3.5-6.9-3.5l-1 0.9-1.9-2.7v-2.7q0-1.8 4.9-1.8v-1q-4.9 0-4.9-2.7v-4.5l1.9-1.9h4.1q0 2.7 2 2.7l4.9-0.8-1-1v-0.9l-1 0.9h-2.9l-2-1.9v-2.8q1.8-4.6 8.6-4.6h1.2l1 2.9 5.7-1.8q0 3.5 5 3.5v7.3h4.1v5.6l0.8 1v0.8q3 0 3-3.7l6-0.8-0.8-1v-0.8l-1.1 0.8h-2.2l-2.9-2.7-1-3.7h-2.9l1.1-1v-1.8l-6-1.7 1.9-3.7h-1.9v-9.2h3.9l4.9 0.8q0-2.6 1.9-2.6h4.3l0.8 2.6q-7 1.7-7 7.6h1q2.9-4.7 6.8-4.7l2.1 1.6-1.1 1.1v4.7h6q2 0 2 2.6h2.1q0-5.3 5.5-5.3l-0.8-1v-1l1.8-8.2-1-0.9h2q0 2.7 2.1 2.7h3.1v-1.8h-2.1l1-4.8v-1.6h-1v1.6h-1.8l-1.3-3.4h5.2v2.6h3.9l1-0.8h0.8q1.6 3.5 5.9 3.5v2.9l-2.8 2.6-2.3-1.6-5.5 1.6v1.9h3.9v1l-2.1 1.6-1-0.8h-0.8v1.9l1.8 5.5h2.1q0-5.1 6.7-11.9zm-9.6 17.4l-1-1h-0.8l-3.1 2.9 1 1v1.6q0 4.5-4.1 4.5v2.9h1.3q4.3-3.7 6.7-11.9zm-5.9 14.8l-2.1-1.9v3.5zm-10.6-52.5h9.8v1.9l-5.1 1-6.8-1zm8.6 41.4v-0.8h-2q0 1.6-3.7 1.6v1.9l4.7-2.7zm-2-32.2q0 2.1-9.7 5.5v0.9l4.9 1q0-2.9 2.1-2.9l0.8 4.7-2.9 4.5v1.1h-2.8l-2.1-1.9v-4.5q-4.5 0-6.9-2.9v0.9l-0.9-0.9h-0.8l-6.1 1.9-2.1-2.9 3.1-2.6v-0.9l-2-1.8q-7.4 0-8.8 6.3h-1.1l1.1 0.9v1l-2.1 1.8h-6.8q0-4.7-2-4.7h-0.8q-3.9 1.7-3.9 6.6 5.5 0 5.5 1.8h-0.8l0.8 2.7h1.2q2.1 0 2.1-2.7l0.8-1h3.1l2.9 1.8q0 7.4-6.8 7.4 0-1.6-4.9-1.6v-2.1h-3.1q-9.2 12.1-10.8 12.1-1.9 0-1.9 4.5l-1 0.9h-4.9l-4.9-0.9v0.9l1.8 4.7-1 0.8h2q2.1 0 2.1-3.7 2 0 2 4.7h1l-2.2 5.3h1.2l3.9 1.1v1.6h-22.7l-6.8-0.8-8.8 0.8h-64.9q-3.5 0-8-3.5h-1.8l0.8 0.8v2.7h-0.8l-1.1-0.8-4.7 0.8h-12.7l-6.1-5.3v-4.5l2-2.9 0.9 0.8h3.2l-2.2-5.3h-1.9v-5.5h4.1l1.7 3.6v1.1h1l2.1-1.9v-1q-2.7 0-6-5.5l1.2-5.6q6.6 1.1 6.6 2.9v4.5q2.9 0 2.9 4.7l6.1 3.5h0.8v-3.5h6v3.5l-5 5.5v1.9h1.1q0-4.5 5.9-4.5h1q0 3.7 4.9 5.5v0.8h-2v1.9h2.9l8-1.9v-1.8l-6.2-2.9-1.8 2.1-7.8-10.1 1-2.8h-1q-4.5 0-6-7.2 4.6-2.1 5-5.8h3l2.1 1.9v0.8l-1 4.7 1-0.8h0.8l5.7 1.9v-4.8l-1 1.1h-1.8v-2.9l4.1-1.9h1v-0.8q-7 0-7-1.8v-1.9l1-2.8h-1l-5.9-1.9 1-0.8v-0.8l-2-1.9q0 6.4-3.9 6.4l-4.7 1-1.1-7.4-1 0.9h-6.9q0 5.5-2.1 5.5h-5.9v-5.5q0-1.7 5.9-2.7 0-6.6 2.1-6.6h6.9v1.9h1q0-3.7 1.9-3.7h17.4l6.1 6.6v-6.6h1.1l2.8 1.8h3.1l2.9-1.8h57.9q1.9 0 1.9 2.9h1q0-2.9 2-2.9h21.7l1.9 1.8v1.1l-1 0.8v0.8h1l4.9-4.5h38.3v1.8l-1.9 1.9v-0.8l-3 0.8v2h4.9q1.8 0 1.8 5.4h1.1l2-6.6h2.1l1 1.2h1l1-1.2q1.7 3.5 5.6 4.7zm-4.8 35.9v-1h-2.8v1.8zm-7 2.7l2.1-1.9q-5.2 0-6-2.6l1-3.7-1-6.4h-2.6l2.6 12.7 1.9 1.9zm-17.6-41.2v-2.1l-2.9-0.8-1 0.8v1.3l2.8 1.8zm-2 46.7l-1.9-1.8-2 1.8v1.9h1l2.9-1.1zm-3.9-9.2v-0.8h-1l-2.9 0.8v3.7h2zm-7.7-35.7v-0.8l-1.3-1h-2.6l2.6 2.7zm-15.7 9.2l-8-4.7v2.6h-0.8l-1.1-4.5h-2v1.9h-3.9l-4.9 0.8-1.9-5.3h0.9l-0.9-4.7h-1l-1 0.8h-1l2 9.2h-2v1.8h7.1v4.8l3.7-0.9 2.9 0.9v6.3l-2.9 2.9-1-0.8h-1.8l-2.1 1.6h3.1v1.8l-4.1 3.7h-1l-0.9-1-1 1h-1l-4.9-1v1.9l7.8 1-0.9 1v1.8h0.9q0-1.8 5.1-1.8 0.4-4.7 2.8-4.7l8 3.7v-2.9h-2.2v-2.7l1.2-0.8v-1l4.9 1h0.8v-1.8l-5.7-0.8 1-1.1v-1l-3-1v-6.2h-4.1v-3.9h2v2.1h1l3.1-1v1q0 2 6.8 3.5zm-21.7 9l1-5.5q-4.9 0-4.9-1.7l1-2.8q-2.3 1.8-6.8 1.8v1.8q0 1.7 4.7 2.7l1.1-0.8 2 3.5h-2v1zm0 25.8v-2.9h-3.9q0 1.5 3.9 2.9zm-5.8-5.7v-1.7h-1l-2 1.7zm-1.1-38.3l-2.8-2.7h-2.1l-1 2.7 1 0.8h4.9zm-8.8 33.8v-3.5h-2.8v0.8l0.8 2.7zm0 8.4l-2.9-2.9h-1l-7 1v2.7q4.7 0 4.7 4.5 3.9-0.4 6.2-5.3zm-7.2-40.4l1-1h-1.8l-2.9 2.9 2.1 4.5h0.8l1.8-1.9zm1.1 27.5l-1.9-5.5h-1.8v3.6l2.6 2.9h1.1zm-6.6 10.1v-1.1l-4.1-0.8v1.9zm-6.1-37.5l1-2.7-1-1h-1v1h1l-1 0.8v1.9zm-3.9 3.4l2.8-2.6h-0.8l-2.9 2.6zm1.1 35.9l1.8-11.9h-1.8l-1.1 5.5h-0.8q-3.3 0-6.9-2.6h-1.1v1.6q0 1.9 4.1 1.9l1.1 5.5zm-1.9-27.5l-1-2.6h-0.8v3.5h1.8zm-5.9-14.6v-3.1h-2.1v2.1l-1-0.8h-1l-2.9 0.8v-0.8l-1-2.9h-0.8v2.9q6.7 3.2 6.7 11.8h2.1l-2.1-8.4zm0 48.4v-2.6l-1-0.9h-3.1q0 2.7-3.9 2.7v2.7q4.5-3.7 7-3.7v1.8zm-13.7-43l-3.1-3.7h-3.9l6 4.5zm-6 40.4l1-2.7q-4.9 0-4.9-4.7h-1l-1 7.4zm-6-37.7v-4.5l-1.8 1.8 0.8 2.7zm-2.8-5.4v-1.8h-1.1l-1.8 1.8v0.9h1.8zm-7.1 4.5l1-3.7h-1l-1.7 1.8zm-11.7-7.2v-1q-2.8 0-2.8-2.9l-1.9 2.1-1-1.2h-1.8v4.7h1q2-1.7 6.5-1.7zm-4.7 12.7v2.7h-5.1l-1.8-1.8 5.9-1.7zm-6.9 33l-3.1-2.6h-0.8v0.8q0.8 5.5 2.8 5.5h1.1zm-12.7-53.3l1.8 1.9-1 1h-0.8l-2.1-1.8 1-1.1zm141.9 293.3h-66.7v-102.9l3.1-4.9-1.1-3.1v-1l1.1-1.2h-3.1v-8l2-2.3h3.1l1.2 1.3q0-11.3 4.1-11.3l-1-4.3 2.1-1.9h7.3v-2q4.1 0 4.1-2.1h-8.4l-5.1-1.2v1.2l-6.3 2.1h-1.1l-2-2.1v-38.9h2v4.9h2.1l2.2-5.9 5.2-2.1 1-1h-3.1l-3.1 2.1h-4.3l-2-2.1v-7.2l1-1q3.1 0 3.1-3.3l-4.1-5.9v-9.2h2v-5.2l-2-3v-1.1l2-2h4.3v2h-2.2v1.1h6.3v-3.1h12.5v5.1h1l6.4-5.1h5.1q2.1 0 2.1 3.1h6.3q0-3.1 2.1-3.1h7.3l2.1 2 3.1-2h6.3l2 2v8.2h-3q0-4.1-6.4-4.1h-1l1 3.1-5.1 6.2v1l6.2-5.1h2.2l3.1 3v1.1l-1 5.1q-6.4 1.4-6.4 3.1v1l6.4-3.1q2 0 2-5.1h2v28.7l-3-1-2.1 1.8q3.1 0 5.1 4.3v45.1h-2v-4.1h-5.3l7.3 8v12.3q-3 5.3-7.3 5.3 0 1.9 3.3 1.9v5.3l-2.1 2h-6.3v-6.3q0-2.1 3-2.1l-2-2.8q-3.5 4.9-8.4 4.9v2h-6.2l-1 1.1 2.1 3.2 3-2h5.4q2 0 2 5.9 4.1 0 4.1 4.3l5.3-3.2h5.1zm-8.3-54.8h1l2.2-6.1-1-3.1h-2.2zm4.3-24.4h1l1-5.3-4.1-1v1zm-52.2-11.3v4.9h-2.1v-4.9zm29.3 0q6.4 0 11.5 4.9l1-1q-1.2-3.1-10.4-6.1zm-18.9 0h2.1v-4.3l-2.1 2zm-18.8-4.3q8.4-1.4 8.4-3.9h-3.1zm25-2h2.2l1.1-2.9v-1h-3.3zm39.7 1h-2l-1-1 1-7.2v-2.1h2zm-35.4-15.1h2q1.5 4.9 3.1 4.9 0-5.5 5.3-9.2v-3.9l-10.4 7.2zm-26.2-1.1q2.8 0 6.3 3.1h1.1l3-5.3-3-3.1h-1.1q-3 4.1-6.3 4.1zm17.8 3.1h2q0-2.1 3.3-2.1v-1h-2.2v-1.2l1-5q6.3-2 6.3-4.1v-1.2l-4.1 1.2h-1l-1.2-1.2q0-4.1-2.1-4.1v-5.9h-1l-1 5.1-5.1-1h-1l-2.3 1.8v1l2.3 5.4h3l5.1 1v2l-3 2.9zm35.4-6.3l6.4 1v-3.1h-6.4zm-11.5-13.1l6.4 4.9h1v-2q-7.4-2.1-7.4-6h-3v3.9zm-45.9 1.9v-1.1l-1-0.8v-9.4h2q0 3.1 4.3 5.3 0 5.3-5.3 6zm50.2-9.3l4.1 1.1q0-1.5-4.1-3.1zm-23-3.9l4.1 3.9 1-2.9h-1l-1-1zm10.4 0h3.1l1-1q0-3.1 3.1-3.1v-2.3q-7.2 3.7-7.2 5.4zm-13.7-9.3q0 1.9 11.5 2.9-5.1-3.3-5.1-8h-2.1q0 4.1-4.3 4.1zm19.9 0l3.1 0.8v-0.8l1.2-1h-4.3zm-34.4 0q4.3-1.4 6.3-5.1h-3.2q-5.2 0-5.2-5.2h-1q0 2.9-3.3 2.9v3.3l1.1 1 3.2-1q2.1 0 2.1 4.1zm36.4-14.3q0 4 9.5 6.9v-3.9q-8 0-8.4-4.1h-1.1zm-28 3.1l2 1.8h2.1l-2.1-1.8zm41.8-2h3.1l-1-4.4h-3.3zm-35.7-10.2h1.1v-1l-1.1-3.1h-3q0 2 3 2zm-10.4-6.3l2.3 2.2h3l-2-2.2zm11.4-19.5l5.4 3.3v-2q-3.1 0-3.1-2.1h-2.3zm11.5 3.3q2.3-0.4 4.3-5.1l-1-5.2h-5.3v1.1q4.3 0 4.3 3v2.1l-2.3 3.1zm-19.6-4.1h3l-2-2.1h-1zm6.1-10.2h5.3v-2.1h-3.3zm-9.4-6.1l4.3 2 1-4.1-3-1zm35.6-2.1v2.1h-3.3v-2.1zm432.5 151.3v19.9h-0.4l-5.1 3.1v5.3l5.5-6.4v45.1h-57.9v-1l1.2-1v-1.1l-1.2-1h-1l-4.1 4.1h-9.5v-2l1.1 1h1v-3.1q-7.8 0-12.5-5.3v-5.1h-5.3q0 3-5.1 3v2.1q0 1.6 8.4 4.3l1 5.1h-117.4l-2-2v-2.1l3.1-4.3v-1q-3.1 0-3.1-2.1v-4.3q0-2 3.1-2v-6.2q-3.1 0-3.1-12.7v-5.1l1-4.3-1-4.1v-13.7l3.1-3.1h2.2q17.6 6.4 17.6 10.5h1.3l2-2.1h-3.3l1.3-5.3h-3.3l-5.1-1.1v-2h104.6q2.1 0 2.1 9.4l3 2.1 3.3-2.1h6.1l3.3 2.1h3.1v-1q-2.7 0-4.1-5.2l-1.2 1.1-10.5-2.3v-2.1l2.3-2h57.5v5.3h2.1l2-2.2-1-3.1zm-5.5 63.9v-1h-2.1v3.1zm-52.4-10.5v-2.2l-1 1.2h-3.1q-2.1 0-2.1-3.3l-1-1h-1v5.3zm-2-5.3l1-8.4-1-1h-3.1l1 1-1 5.3zm-6.2-11.4v-2.1h-9.4l-3.3 2.1q1.5 6.3 3.3 6.3h1l-1-5.3 3.1-2.1h1zm-14.7 14.6v-6.2h-2.1l-4.3 4.1v1.1h1v-2.1h1.3zm-5.4-36.5l-2-2.2h-1v1l2 2.3h1zm-9.4 6.1v-3.1h-1q-2.5 2.1-7.2 2.1l1.1 1v1l-3.3 4.3h3.3zm-12.5-1l2-2h-3.1v2zm-3 29.3v-1h-3.3l-2.1 2v1.1h3.3zm-1-22v6.4h-2.3v-6.4zm-4.3 18.9v-1l-5.1-2.1h-2.2q2.2 4.1 6.3 4.1zm-2-24.2l-3.1-3v1q1.4 4.3 3.1 4.3zm-5.4-2.1v-1l-7.1-3.1-2.3 3.1 2.3 8.4h1q2.7-7.4 6.1-7.4zm-5.1 19.9l2.1-2-1-1.1h-1.1zm-3 17.9l-1.3-5.1v-8.5q-2 0-4.1 10.5v1l2.1 2.1zm-18.9-22v-1h-3.2l-2.1 2.1v1l2.1 2q0-4.1 3.2-4.1zm-7.3 23v-1h-3.3l-1 3.1 1 1.2h1.2zm-7.4-5.1q-6.3 0-6.3-3.3l1-6.2q-3 0-3-2.2h-1.1l-2 5.3q2 5.3 4.1 5.3v1.1l-1 1v1q4.3 0.2 4.3 2.1 3-0.9 4-4.1zm-5.3-42.1l-2-2h-1v4.1h3zm-12.5 15.8l-2-2.1q-2.7 7.2-6.4 7.2v1.2q4.3 5.1 4.3 8.2l2.1-2v-9.5zm-2.1 28.3l-2-2h-6.4v1l4.1 2.1zm-2 4.1l-2.3-2.1h-1l2.3 2.1zm-6.4-43.9l-2-2.3-3.3 1.3q2 4.7 4.3 5.1h1zm-8.8-177.1v-19.9h0.4l5.1-3v-5.4l-5.5 6.4v-45.1h58v1l-1.3 1v1.1l1.3 1h1l4.1-4.1h9.4v2l-1-1h-1v3.1q7.7 0 12.4 5.3v5.1h5.4q0-3 5.1-3v-2.1q0-1.6-8.4-4.3l-1-5.1h117.3l2.1 2v2.1l-3.1 4.3v1q3.1 0 3.1 2.1v4.3q0 2-3.1 2v6.2q3.1 0 3.1 12.7v5.1l-1.1 4.3 1.1 4.1v13.7l-3.1 3.1h-2.3q-17.6-6.3-17.6-10.4h-1.2l-2 2h3.2l-1.2 5.3h3.3l5.1 1.1v2h-104.7q-2 0-2-9.4l-3.1-2.1-3.2 2.1h-6.2l-3.3-2.1h-3v1.1q2.6 0 4.1 5.1l1.2-1 10.4 2.2v2.1l-2.2 2h-57.6v-5.3h-2l-2.1 2.2 1.1 3.1zm5.5-63.9v1h2v-3.1zm52.5 10.5v2.2l1-1.2h3.1q2 0 2 3.3l1 1h1.1v-5.3zm2 5.3l-1 8.4 1 1h3.1l-1.1-1 1.1-5.3zm6.1 11.4v2.1h9.4l3.3-2.1q-1.4-6.3-3.3-6.3h-1l1 5.3-3 2.1h-1.1zm14.8-14.6v6.2h2l4.3-4.1v-1.1h-1v2.1h-1.2zm5.3 36.5l2.1 2.2h1v-1l-2.1-2.2h-1zm9.4-6.2v3.1h1q2.5-2.1 7.2-2.1l-1-1v-1l3.3-4.3h-3.3zm12.5 1l-2.1 2h3.1v-2zm3.1-29.3v1h3.3l2-2v-1.1h-3.3zm3.3 15.6v6.4h-2.2v-6.4zm2-12.5v1l5.1 2.1h2.3q-2.3-4.1-6.4-4.1zm2.1 24.2l3 3v-1q-1.4-4.3-3-4.3zm5.3 2.1v1l7.2 3.1 2.2-3.1-2.2-8.4h-1.1q-2.6 7.4-6.1 7.4zm5.1-19.9l-2 2 1 1.1h1zm3.1-17.9l1.2 5.2v8.4q2.1 0 4.1-10.5v-1l-2-2.1zm18.8 22v1h3.3l2-2.1v-1l-2-2q0 4.1-3.3 4.1zm7.4-23v1h3.3l1-3-1-1.3h-1.3zm7.4 5.2q6.3 0 6.3 3.2l-1 6.2q3.1 0 3.1 2.2h1l2.1-5.3q-2.1-5.3-4.1-5.3v-1l1-1.1v-1q-4.3-0.2-4.3-2-3.1 0.8-4.1 4.1zm5.3 42l2.1 2h1v-4.1h-3.1zm12.5-15.8l2.1 2.1q2.6-7.2 6.3-7.2v-1.2q-4.3-5.1-4.3-8.2l-2 2v9.5zm2-28.3l2.1 2h6.3v-1l-4.1-2zm2.1-4.1l2.2 2h1l-2.2-2zm6.3 43.8l2.1 2.3 3.3-1.3q-2.1-4.7-4.3-5.1h-1.1zm-71.4 24.8h78.4q-1.2 1.4-2.5 2.7-15.1 20.9-20.2 20.5-0.7 6.1-4.3 5.9l-5-0.4 0.3-2-3.5-0.5-0.2 2.1-6.2 0.6q-5.1 4.9-11.4 4.5l-0.3 2.1 5.8 1.4 2.6-1.8 4.8 2.4q7.1 0.6 7.5-2.4h2.3v1l-8.8 11.1q0.2-0.9 0.4-1.5l-9.6-0.6v1.2l-1.5 0.9-5.3-0.5-5.5-1.4v1h-0.2l-0.6-3.2-6.4 0.6-2.7-0.2-4.3-1.5-1.8-0.2-5.1-3.5-2.1 0.9-2.8-0.2q-0.9-4.3-10.3-7l-3.7 0.8 0.2-2h-1.2q-2 1.4-3.9 2.6 1.1-9.4 12.1-9.6l-1.2-1q0.4-2.7 5.1-2.7l-2-3.5 0.2-2q6.3-8.2 12.9-14.6zm-43.5 145.5h-78.4l85.2-101.2 3.5 0.2-0.4 3.1-1.3 0.8 1.3 0.2 3.7-1.9q0-4.1-3.1-4.3 0.4-4.3 5.9-9l2.3 2.3 13.3 1-0.4 2.1 3.7 0.2-0.2 1 1.2 0.2 1.8-1 2.1 0.2-0.2 2 5.3 0.4 1.6 1.3 4.5 0.4 9.7 2.8v1.1l5.7-0.7 4.1 1.5 1.2-1 1.3 0.2 0.2-1.1 3.4 0.2q-0.4 3.1 2.3 3.3l1.2 0.2 2.3-2.8q-1.7 3.8-9.6 12.7l-1.1-1.1-2.6-0.2v1.1l2.6 0.2q-2.8 5.7-36.4 43-19.9 23.8-35.7 42.6zm-9.4-52.2l-2.2-2.3-1.3-0.2-0.2 2.1zm-0.6-16.8l-2.4-0.3-0.2 2.1 2 2.3h1.2l0.2-1.1zm24.2-10.8l-4.9-0.4v1.2l4.9 0.4zm-11.5-6.2h-1.2l3.1 5.4 3.5 0.4q-2.3-5.3-5.4-5.8zm25.2 1.1l-2.2-0.2-0.2 1 2.2 2.2zm4.1-2.8l-3.7-1.3-2.4 1.9-0.2 1 1.2 0.2 5.1-0.8zm11.5-6.4l-3.5-0.4-0.2 2.1 3.5 0.4zm18.6-35.3l-2.4-0.2q-0.4 3.5-11.5 5.6l-13.3-1.1-0.2 1.1q4.9 0.8 4.7 3.5v1l-1.4 0.8 6.7 4.9 2.3 0.2 6.3-0.8-0.4 3.3q4.9 0.4 5.5-6l7.4 0.7v-1.1q0.4-2.6-4.5-3.5zm0-12.5l-3.9 2.7v1.2l2.1 2.3 2.6-1.9 0.4-3.2zm-19 19.4l5.5 4.6-2.4 1.8h-1.3l-2.2-2.3zm-45.1 93.9l-3.7-0.4 2.3 2.3 1 0.2zm170.4-190.7v-1h35.4l2.1 2.1v28.1h-2.1q0-6.2-2-6.2l-2.1 2.1v2q0 2.1 6.2 4.3v32.2l-7.2-1h-1v1l8.2 3.3v12.5h-3.1v2q3.1 0 3.1 2.1v50q-4.1 0-4.1 7.4l1 1-3.1 2h-3q-2.1 0-2.1-5.3h-1.2q0 5.3-3.1 5.3h-5.1l-2.1-2v-4.3q3.1 0 3.1-2.1l-1-5.1-1 1h-1.1l1.1 1.1v3l-2.3 2.1h-3.1q-5.1-1.9-5.1-9.2v-1.3l3.1-1-2.1-6.1q4.1 0 4.1-5.4h8.4v-4.1h6.2l1.2-1h1q0-3.1-4.3-3.1l-1-6.3-1 1h-1l1 1v2.3l-3.1 3-4.3 1.1v3l-1-1h-2.1l-2 6.4-4.1-2.3v2.3h-10.4v-4.3l1-5.2q-3.1 0-3.1-2v-4.3l3.1-1q1.8 7.3 8.4 7.3v-1q-5.4-3.1-5.4-7.4l2.1-2 1 1h5.3v-6.1q0-2.3 3.1-2.3v-2q-6.1 0-6.1-6.2l-1.1 1h-1.2l-9.2-2-1 1v-2q3.1 0 3.1-2.3v-3.1h-2.1v2.1l-5.3-1h-2.1v1h2.1v2l-4.1 1.3v-5.4h3.1v-4.1l-1.1-1v-1q4.1-1.9 4.1-6.4h3.3l3.1 3.1-2.1 2.3 2.1 6.1h2v-4.1h1l2.1 2.1-1 1v1h2l6.4-2v-2.1q-6 0-13.5-7.4v-8.4h-2.1q0 2.5-4.3 6.4l-1-1h-5.1l2 7.1q0 3.3-8.4 8.4v1.1h-4.1v-8.2l2.1-7.4h-2.1v-4.1h2.1v3.1q7.7 0 8.4-4.1v-1.3h-1.1v2.3q-8.4-1-8.4-7.4l4.1-3.1h6.4l-1 5.2v2h1q0.2-4.1 2-4.1l-2-9.4 2-2.1v-1q-3 0-3-2l-1.1 1h-1l-3.3-3.1v-1q5.4 0 5.4-4.3l-1.1-1 1.1-1.1 1 1.1h3.1l5.3-1.1 1 6.4h1q3.5-3.3 6.2-3.3v-2l-4.1-1.1 3-9.4q-2.6 0-4-6.1l2-3.1 5.1 2 1.2-1zm-28-1h14.5v3.1h1.1q0-2.5 4.3-3.1l2 3.1v2q-3.1 0-3.1 3.3l-4.3 2-4.1-1q-2 4.7-4.1 5.1l-1-1h-1.2l-3.1 4.1 6.4 1.2v7.2q-4.3 0-4.3 3.1h-4.1v-11.5l1-9.2-1-7.4zm77 2.1l2.2-2.1h25l2.1 2.1-2.1 2v3.3h1q3.1 0 3.1-7.4h17.6l1 1 1.3-1h13.5q0.6 5.1 3.1 5.1l1-1h1l-1-1v-3.1h26v3.1l1-1 1 1h2.1v-1l-1-1.1v-1h37.4l2.3 2.1v50l-2.3 2h-27v-3.1q-2 0-2 3.1h-59.4l-3.1-2-3.1 2h-38.5l-2.2-2v-8.2l1-1.3-1-1v-32.2h2.2v-3h-2.2zm-32.2 7.3l-2-2-2.3 4.1h2.3zm14.5-1l-3.1 1q2.1 8.2 4.1 8.2l3.1-3.1q-2 0-2-5.1l-1.1-1zm29.1 3l-2 2.1 3 2 1.1-3-1.1-1.1zm-49.9 3.1l-3.1 3.1h1l3.1-3.1zm135.4 0h-1.1q0 4.3-6.1 4.3l-1-1.2-1.1 4.3h6.2l3.1-6.4zm-49 5.4l-3.1-2.3-1 4.3h2.1zm-71.9 0h-9.2v5.1h-1.1l-2.2-2 1-1h-3.1v6.1h-2v2.1h2q0-3.7 9.5-4.1 2.4-4.1 5.1-4.1zm47.9 2h-2v4.1l2-2zm62.5 2l-3.1 3.1h3.1zm-78.1 5.1l-1 1v1.3l1 1h1.1l1-1 3.1 4.1v6.1h1.2l3.1-1v-1q-2.9-6.8-9.5-10.5zm-49.9 3.3l-2.1 2v1.1h2.1l1-3.1zm-12.5 2l-6.3 2.1v2h1.2l5.1-1zm28.1 2.1h-2.1l1 5.1h-2v3.3h1l9.4-4.3h1.1v-1.1l-5.2-1h-3.2zm-25 1v3.1h-2.1v-3.1zm10.5 2.1l-2.1 2v1.1h2.1l2-2.1-1-1zm87.4 1h-4.1v2.1h2.1zm-31.1 2h-4.3v2.3h2zm54.1 0h-2.1l-2 6.3h1l3.1-3.1zm-112.5 3.3v3.1h-2v-3.1zm62.5 1h-1.1v4.1h1.1l1-3zm64.5 2h-2.1v2.1l2.1 2zm-101 2.1l-10.4 6.3h-6.2l-2.2-2-3.1 1v4.1l5.3 1 1.1-1 10.4 3.1v-1.1q0-2-3.3-2v-1l4.3-4.1h6.2l1-3.3-1-1zm-18.9 20.9l-1 1v1l3.3 3.1 1-1h2.1q5.1 0 5.1 4.3h3.3v-1.2q-4.3-4.6-13.8-7.2zm16.8 6.1l-2 2.3h4.1zm-59.4 11.5v-10.5h2l1.1 5.3-1.1 7.2zm46.9-9.2h-1v2q2.1 0 2.1 4.1h2l-3.1-5.1zm-36.4 2.1q2.2 0 6.1 10.4h1.1l1.2-5.3q-3.3 0-3.3-2.1l5.3-1 5.1 3.1h1.1v3.1l-2.1 2.2h-5.1q0 4.7-3.3 7.2h1.1l-1.1 1v1l2.3 6.4-3.3 2-3.1-3h-1l-2 2q0 8 7.1 9.4v1.1l1.1-1.1h1.2l2 2.1v7.2q-5.3 0-5.3 2.2v1q1.8 4.1 7.4 4.1 0-6.1 2-6.1v1l3.1-1v-1.2q0-2.1-3.1-2.1l-1-1v-3.1l2-3.1q8.4 0 8.4 7.2-2 0-2 5.3h-2.3v3.1q13.8 9.7 13.8 11.5 0 2 5.1 2l1 1.1v5.3l-1 5.1h1l5.3-2 1.1 1v-2.1q0-2-4.3-2 0-2.3 5.3-2.3v-1l6.1 2.3v-1.3l1-4.1h2.1v24l-1 7.4 1 9.2v68.9q0 3.7-4.1 8.4v2l1-1h3.1v1l-1 1.1 1 5.1v13.5l-6.1 6.4h-5.2l-3.2-2.1 1-1v-3.3l-6.2 2.3v2h-6.3v-4.3l4.3-2h1v-1.1l-2-2h-1.3q0 2.7-6.1 6.4l-6.4-1.3q1.3-7.2 3.3-7.2h5.1q0-3 5.4-3l4.1-6.4v-1h-4.1v-6.2h4.1l6.1 5.2h2.3v-1.1q-5.4 0-5.4-6.3v-1q4.3 0 6.4-5.2h1v2.1h2.1v-3.1l-2.1-8.4h-2l-3.3 6.4 2.2 2-11.4 8.2-3.3-1v1q0 4.7-8.2 6.4-2.3-4.7-6.4-5.2v-3.2l2.1-2.1h1l5.3 1-1-1v-1l2.1-6.2h-5.4l1.3 1.1v2h-3.3l-2.1-4.3v-1h-1q0 7.4-2 7.4h-2.1l-3.2-1.1v1.1l-2.1 6.1-1-1h-1l-2.1 2.2q7.4 0 7.4 4.1l1 5.2-8.4 1 1 1v7.4q6.4 0 6.4 2v6.4h-6.4q-1.8 0-3-6.4-7.4 0-7.4-2v-7.4h2v-1q-4.1 0-4.1-2.1v-18.6l7.4-6.4h-7.4v-1l2.1-3.1v-3l-2.1-3.3v-61.5q0-2 3.1-2v-1.1q-3.1 0-3.1-2v-23l2.1-2h1l1 1h1.1v-1l-5.2-5.4v-40.5h2.1l2 2h-1l1 3.3h2.3v-5.3q0-2.1 6.1-2.1v-1l-7.3-2.1v-2.2l1.2-1v-1.1l-1.2-1q3.8-1.8 5.3-6.1zm40.5 5.1h-1v3.1h2.1zm3 7.3l-2-2q0 5.3-3.1 6.1l-4.1-1-7.4 1v3.1l14.6-3.1 2-2zm25 18.6v-2q6.6 0 9.4 9.4l-1 1h2.1l1-1 1 1h1.2l3.1-3-5.3-5.4v-2h1l1.2 1h1.1l1-1 5.1 1h8.4l5.1-1v1l1-1h3.3l3.1 1 5.1-1h17.8l8.2 2 2.3-2h1l1 1 1-1h41.6l2.1 2v1.1h-1.1l-5.1-1.1-1 1.1v1l8.4 2.2 1-3.2h2.1v18.8q-7.6-1-11.5-5.3h-6.4v-2.1h-6.1q0-4.1-4.3-4.1v1.1q2.5 9.4 5.3 9.4 3.1 0 3.1 3.1l1 1h1q0-4.1 3.3-4.1l3.1-2.1 6.1 4.1h2.3l1-1h1l1.1 7.2v13.7l-1.1 1 1.1 1.1v1l-1.1 7.2-7.3-1.1-2.1 2.3h-2v-1.2l-7.4 1.2h-12.5l-1-1.2-1 1.2h-7.4l-1-1.2-1.1 1.2h-6.1l-4.3-1.2-4.1 1.2h-7.4l-2-2.3-8.2 2.3h-27.3q-2 0-4-6.4h-1.1l-2 3.1-3.3-1v1q0 3.3-5.1 3.3h-6.2v-2.3h5.2v-1l-1.1-1 1.1-3.1h1l1 1h1l1.1-1v-5.1q0-2.3-3.1-2.3l-1 1.1h-1.1l-3-1.1 1 1.1-1 1.2v1l1 3.1-2.1 5.1h-2.2v-12.5l1-1-1-1v-22h1q2.3 0 3.3 8.4h1q0-6.3 2.1-8.4v-1l-6.4-6.1v-3.3l1.2-1zm-71.6 0h-2.3l-1 3.2 1 1.1h1.2l2.1-3.3zm107.1 0l-2.1 2v1.3l3.1-1.3v-2zm5.3 0l-3 1v2.3h1l3.1-1.3v-2zm-59.4 2l-2.1 2.3 2.1 2h2v-1l-1-3.3zm99.9 0l-2 2.3q3.1 0 7.4 4.1 0-3.1 3-3.1 0 1.7 7.2 5.1v-2q-4.9 0-9.2-6.4zm-110.4 4.3h-1v1.1l1 3h4.1v-2zm67.8 4.1l-2.3-2.1v3.1h2.3zm-19.9 0h-2q0 5.8 5.1 8.4l5.3-7.4v-1h-1q0 2.1-4.3 2.1v2h-1v-2zm-88.5 4.1h-1l-1 1.2v3.1l3-3.1zm139.5 1.2l-3.1-1.2v2.2h5.1v-2.2l-1 1.2zm-32.1 3.1l-4.3-2.1v1.1l1 3h1zm53 0h-3l1 4.1h2l2.1-2zm-79.3 2v2.1h2.3q0 2 3.1 2v7.4h2l1-5.3q-5.9-6.2-8.4-6.2zm78.3 4.1v4.3h-1.1v-4.3zm20.7 2.1h-2l1 5.3 3.3-3.1zm-78 2.3h-3.1l2 3.1-5.1 2q0 1.7 4.1 3.1 0-1.6 5.1-3.1l1.1 1.1-1.1-4.1-1 1h-2zm45.8 1l-5.3 1v4.1l3.3 1.1zm-137.4 1l-5.4 8.4h3.1v1l-5.1 1v2.1h2v4.1l1.1 5.3-6.2 2.1v-1.1l-5.3 1.1v1l1 1v1l10.5-2v2h2v-7.3h5.3l-1-4.1 1-3.1h7.2l3.3 3.1-1 1v2l2 2.3v-3.3h2.1l4.1 4.3v1l-1.1 1.1 1.1 1v1l-1.1 5.1h2.1l1-8.2 1.2 1.1h2.1v-1.1q-2.1 0-2.1-5.3-5.3-0.6-5.3-3.1l4.1-8.4h-3.1v2.3h-3l-1.1-1.3h-1l1-5.1v-1h-2l-1 6.1-1.1-1h-1.2l-1 3.3h-7.2v4.1h-4.3v-2h2.3v-1.1l-1.1-3.3h1.1q2.4 0 4.1-7.1zm74.9 2l-5.3 2.1v1h1l5.3-1v-2.1zm71.9 1h-2.2v2.1l3.2 7.4h1.1v-6.4q-2.1 0-2.1-3.1zm-25 11.5l-4.3-1v3.1h1.1l3.2-1zm27.1-1.1h-2.1q0 3.1-2.2 3.1v2.1l4.3-2.1zm-138.7 9.4l-6.1-1q0 5.1-2.1 5.1l-3-1q2 2.5 2 7.4h2.1q1.8 0 3-5.3l-1-1.1 4.1-2v2h1zm29.3 0h-3.1v4.1q1.5 0 3.1-4.1zm-6.3 6.2h-2.1v1l2.1 2.1zm-43.7 1l-3 3.3v2l3 1 1.1-1v-5.3zm38.5 9.4h-4.1v3.1h1l3.1-1zm9.4 0l-3.3 3v1.1l1.2 7.3h3.1q0-5.1 5.1-5.1-0.6-4.1-6.1-6.3zm-45.9 7.3l-1-1v2.1l3.1 3 5.3-2v-1l-2.3-2.1zm31.2-1l-6.2 2v2.1h4.1l3.3-3.1v-1zm11.5 7.2h-1.1l-1 4.3h2.1zm-42.6 6.3l-3.1-1-1 1v1h1v-1l1 1h2.1zm4.1 4.1l-3.1-3v1l3.1 3.1zm40.7-1.1l-13.7-2v2l6.3 1.1v1q0 3.5-3 7.4v1h2q2.1 0 2.1-4.3l6.3-1zm-31.3 2l-3.1 1v1.1h4.1v-2.1zm-16.6 6.4h-3.3v2h2.3l-1 1v1.1l1 3h-1l-3.3 1.1v1h3.3q3.7-7.2 13.5-7.2v-2l-9.4 2zm55.1 0h-3.1l-1 1v3.1q3 0 3 4.1h3.1q-4.1-4.7-4.1-7.2h2.1zm-49 14.6l-4.1 3.1v4.1l5.1-6.2zm45.9 6.2l-3.1-1.1q0 5.4-5.3 5.4v1l8.4 1zm31.1 4.3l2.3-2.2h6.1l4.3 3.2q0-3.2 2.1-3.2h9.2v1.2l-1 1v1l1 1.1h1.2l4.1-4.3h35.4l3.1 2.2 4.1-2.2q3.5 1.2 4.3 4.3l-1 1 8.2 4.1v-2.1q-3.9 0-5.1-7.3h17.6q4.3 0 14.7 6.3l2.1-2-1.1-1.1v-3.2h13.6l2 2.2v8.2l-6.3 9.5h1l4.3-3.1h1v13.5l-1 1 1 1.1v1l-2 3.1 2 3.2v13.6l-2 2h-41.8v-1l4.3-1v-1.1h-2.3v1.1l-1-1.1h-3.1v3.1h-16.6l-5.3-4.1 3.3-6.3q-9.2-1.1-11.5-3.1l-7.3 3.1v3q3 0 3 3.3h-1l1 1v1.1l-2 2h-14.6v-1q0-2.1 3.1-2.1l-3.1-4.3h-5.1v-2h-6.3q0 5.3-6.2 5.3l-2.2-2.2v-7.2h3.3l-1.1-1v-6.4l1.1-1v-1q-3.5-3.1-6.4-3.1v-1l1-1.1-1-1v-1l2.1-3.3q-0.7-2.7-5.2-5.1l-4.3 2 1.3 5.1q0 3.5-3.3 7.4v2.1q0 2.4 5.3 3.1v2.2h-3.3q0 3.1 4.3 3.1v10.4h4.1v1.1l-2 2h-13.5q0-3.1-4.1-3.1l-1.3-1v-6.3l2.3-3.1v-4.1h-3.3v-8.4l6.4-5.4q0-3 4.1-3v-2.1h-4.1l2-10.4q2.1 0 2.1 3 4.3 0 4.3-4.1l1-1-1-1h-1.3zm-73.9 2h-5.1l2 2.1 3.1-1zm112.6 0l-2.2 2v2.1h2.2zm12.5 0h-2.2v1l3.3 1v-1zm-131.3 3.1h-2.1v1l2.1 2h1v-2zm152 0h-1.1v5.3l2.1-2.2zm-13.5 3h-4.1l2 2.3zm-71.9 7.4v-6.4h2.3l2 2.3v4.1zm-61.4-3.1l-4.1-1v1l2.1 2.1zm144.7 0h-2l-1 1v3.1h1q0-3.1 2-3.1zm34.4 2h-2v2.1l1 5.1h1l1.1-6.1zm-30.1 5.1h-1.3v2l4.3-1v-4.1zm-21.9-1h-2v6.3l1 1.1v1h-3.3q0 1.6 6.4 4.1v-1l-1.1-1.1v-1l1.1-1-3.1-1q0.4-5.4 3.1-5.4zm65.5 0h-1l-2.1 2.1q1.1 8 3.1 10.4l-4.1 6.4h2.1q0-2.1 3-2.1v-3.2l-1-5.2 4.1-1 1.2 1 1.1-1-1.1-4.3-5.3 1.2-1-1.2 1-1zm-93.8 4.3l-3.1-2.3v1.1l6.4 5.3 2-2.1h4.1l9.5 8.2 1-1v-1q-4.1 0-4.1-5.1l1-5.4-3.1 4.3h-2.2l-7.2-3.2zm47.9-2.3h-1v1l1 3.3h1.1v-1zm-155.1 4.3h-1q0 3.1-3.3 3.1l2.3 2-1.2 1v2.1h5.3v-1q-2.1-2.3-2.1-7.2zm149.9 0h-2v15.6q3.5 4.9 8.2 6.1v-1l-4.1-7.2 2-4.3-4.1-4.1zm16.6 1h-1v2.1l1 1h2.1v-1zm10.4 1h-2l1 1 1 1.1q2.1 0 2.1 4.1l3.2 1 1.1-1v-2.1zm-14.6 2.1h-2v3l-1 5.4h1l2-2.1zm-147.8 1h3v5.4l-2 2-2.1-6.3zm37.5 7.3l-3.1 3.1v1h1.1q6.1-1 6.1-3v-1.1zm78 7.2l2.1-2q5.7 0 8.4 6.3h1v2.1l-5.1 2h-2.1q0-4.3-4.3-8.4zm-31.1 6.4l4.1-3.1h3.1l4.3 4.1v1h-9.4zm-107.3 0l2-2 1 1v1l-2 2.1-1-1.1zm231.4-289.8l2-2h8.4l1 1 1.1-1h11.4q0 7.4 8.4 7.4l3.1 1q0-1.5-8.4-4.3v-4.1h28.3l1 1 1-1h7.2l2 2v1l-3.1 4.4q3.1 0 3.1 2v7.2h-1l-1-1q-5.4 4.3-10.5 4.3v2h8.4q0-3.1 4.1-3.1v8.2q-3.1 0-3.1 2.1h3.1v208.4l-2 2.3q-5.2-3.3-5.2-7.4h-1v2l1 1.1-5.3 2 1.3 7.4q-5.4 0-5.4 5.1h-3v-2l-2.1-2.1-3.3 1 1.1 4.4q-1.1 3.2-4.1 4.1-4.1-7-7.2-7.4 0-7-11.5-9.5v-1h3.1v-1l-2.1-2.1h-3.2l1.2 1.1v1l-1.2 3.3-5.1-1.3h-2.1l-2 2.3v2.1l1 1v1l-1 1 1 1 1-1h1l3.1 1q0-5.1 9.4-5.1l1 1.1v8.4h-6.1l-3.3-2.3q0.8 10.5 8.4 10.5l1-1.1 3.1 1.1-1 5.3 3.1 2h1.2q0-3 4.1-3v-2.3h-3.1v-2l3.1-3.1 6.1 3.1q-1.2 7.5-4.1 10.4l1.1 1v1.1l-10.5 7.3h-2v-1l-1.1-3.3h2.1v-2l-11.5-5.1q2.9 4.1 5.3 4.1v6.3q-3.2 0-3.2 4.1v1h-2.1v-2q-3 0-3-2.1h1l-1-1v-7.4h-1.1q-2.6 3.1-6.3 3.1v3.3q4.3 3.5 4.3 6.1l-1 1.1q-6-1.3-8.4-6.2v-18.8l2-2.1q0 8.2 8.4 10.5l1 1h2.1l1-5.1v-1.3q0-5.1-6.1-5.1l-2.1-3.1v-5.3q-6.3 0-6.3-2.1v-39.5l6.3-6.4v-2h-1.2l-3.1 2-2-2v-5.1l3-3.1 7.4 2q0-2 5.1-2v-3.3h2.1v1l-1.1 3.3h1.1q4.3 5.5 4.3 9.2h1l2-2q-3 0-3-7.2 5.1 0 5.1-4.3l-4.1-2-3.1 1v-1l-1-1.1-3.3-1v3.1h-2v-3.1h-1l-4.1 3.1v-1l-8.4 2v-34.2q0-2.3 5.1-2.3l1.2-1v-1q-6.3-1-6.3-3.1v-9.4h1l3.1 2h1v-3l1.2-5.2-1.2-1h-1q0 3.1-2.1 3.1l-2-2.1v-15.8l2-3v-3.1l-2-3.1zm47.9-1h-1l-2.1 5.3h-2.2l-1.1-1.2h-1l-1 4.3-1-1h-2.1v1q0.6 4.1 8.4 4.1v-4.1q6.2 2.1 6.2 4.1v1h-5.2v1l2.1 2.1h3.1q0-2.1 3-2.1l1.3-5.1q-7.4-5.7-7.4-9.4zm29.1 1l2-2h5.3l2.1 2-1 1h2v-2l17.8-1v1q0 5.5-3.3 9.4v3.1q5 0 7.4 2h2.1v-1q0-2-4.1-2l-1.1-4.1q0.7-8.4 3.1-8.4h24q41.5 0.6 41.5 6.3l-2 2.1v3.1l6.3 6.1v5.3l5.2 1.1v-1.1q0-3 3-3l-1-1.1v-1.2l5.3-1 1.1 1h1q0-4.1 2-4.1h2.1q7.2 3.5 16.8 14.6v2h-5.3q-7.2-8.2-11.5-8.2l1 1-1 1.1v4.1h3.1q5.7 0 9.4 6.3v1q0 6.2-4.1 10.5l-1-1h-1.1l-5.3 1-2-2.1h-3.1v1.1l1 3-1 1.1h10.4l3.1 3-1 1.1 3.1 2.2h1v-1.2l-2.1-3.1h1.1l-1.1-1v-6.2l5.1 1.1h1.3v-3.3l-2.3-3.1v-4.1l2.3-2h3q10.5 14.3 10.5 20.7h-3.3v-2.1h-2q0 3.9-4.1 6.4h-2.1v1q2.1 2.4 2.1 7.2 5.5-8.2 10.4-8.2h1l1.1 7.1q-7 7.4-12.5 7.4v5.1h1l1-1q3.1 0 3.1 3.1h2l-2-3.1v-3.1l2-2h4.3l2.1 2v12.5q0 25-9.4 25h-1.1l-2-2h-2.1v3.1l1.1-1.1 5.1 1.1h3.3q-7.8 23.1-27.3 34.4l-17.6 6.2v1.2q12.3 0 25 16.6v2l-5.1 1.1v3h3.1q0-3 4.1-3v1l-3.1 4.3 1 1v1l-1 3.1 6.1-3.1q3.3 0 6.4 17.7l-3.1 1q-2.5 0-5.3-8.2h-2.1v2l1.1 4.1-1.1 4.1h9.4q3.1 1.3 3.1 6.4v1q0 3.1-4.1 3.1v2h2.1v-2h3l2.1 14.5-3.1 2.3-1-1-1 1h-6.4v-6.4l-4.1 2.1 1.1 1v1l-6.2 2.3v1l-6.3-1v-1q0-11.5 14.5-11.5 0-2.3-5.1-2.3 0-7.1-7.4-7.1v-2.1l4.3-6.3-1-3.1h-2.3l-1 1-4.1-1v-1l1-1.1v-1l-2-2.2v-3.1l1-1v-1.1h-4.1l-3.3 3.1 4.3 1v5.4q0 3-9.4 3l-5.3 9.5h-1v-2.1h-4.1v4.1q3 0 3 2.1l-3 3 2 7.4-1 1h-7.2q-3.2 0-3.2-6.1-3.1 0-3.1-2.3h1l-1-1v-2l5.1 1q0-2.1 4.3-2.1l-1-1v-4.1h2v-1l-1-1v-1.3q0-7.1 9.4-7.1h1l3.1 2v-1l-2-3.1 3-3.3q0-2-3-2l-1.1-1v-5.2h2.1l2-2v-2.3h-2l-1 1.1-1.1-1.1h-2.2l-2.1 2.3v1l2.1 3.1v4.1q0 1.6-4.1 3.1 0 4.3-4.1 4.3l-1 1-1-1q-3.5-6.4-8.4-6.4l-1.1-1h-3q-7.4 3.1-7.4 6.3h-4.1q-11.1-5.5-14.7-11.4l-3.1 1 2 3.1v1l-20.7-1-1-3.1h-2.2q0 3.1-2.1 3.1h-21.9l-2-2.1v-49l2-2h25.2l20.7-1v2h1q4.1-2.9 20.9-6.4 18.8-11.6 18.8-23.9l1.1-1.1 2-3-1-1.1v-13.5h5.1q2 0 2 3.1l3.3 1 1-1v-3.1l-1 1h-1.2q0-5.1-10.2-5.1-2.1-9.4-13.6-19.9v-2l-3.2 1-29.1-4.1-3.1 1v-1l-1 1h-1.2l-1.1-1h-1l-1 1-5.1-1h-10.5l-4.1-1.2-4.3 1.2h-9.4l-2-2.2 1-1.1v-1l1 1h1.2l5.2-3-1.1-1.1v-2h2.1l2-2.1v-5.3q0-2 3.1-2v-1.1q-7.8 0-14.5-5.3v-15.6l2-3-2-3.1zm41.7 4.3l-2 2v1.1l2-2.1zm-93.8 7.2l-4.1 2 2.1 2.1 2-2.1zm136.4 0l-1 5.4v1l3.1 1-1 7.2h1q-0.6 8.4-4.1 8.4l1 1v3.1q0 6.3-4.1 6.3 0 7.4 7.2 10.5l1-1v-1.1l-3.1-3.2v-2.1q4.3 0 7.4-5.1l-1-1 1-1.3-1-1q4.1-3.1 9.2-3.1v-4.1h-3.1q0 2.5-6.1 5.2 0 2.6-4.3 3v-4.1q0-4.9 7.4-10.4 0-5.1 3-5.1v-1.1h-2l-1 1.1q0-4.1-5.2-4.1-1.4-5-4.3-5.4zm-125.9 2.1v3.3h-2.1v-3.3zm82.4 2h-4.3v2.3l1-1h1l1.2 1h1.1zm65.5 3.3l-2.1-2.1h3.1v2.1zm-17.6 4.1v-3.1h2.1v1zm17.6 1h-1.1l1.1 4.1 2-2v-3.1h-1zm-93.8 4.1l-3.1-3.1-1 1.1 3.1 6.3h1zm12.5-2h-2.1v2l2.1 2.3h1v-1.1zm91.8 0l-6.4 4.3v1.1l5.3-1.1q0 2.3 5.2 3.1l-3.1-4.1 2-2.2-1-1.1zm-76 2.1h-5.3l-2 4.3 1 1-6.2 2.1v1h2.1q0 4.1 4.1 4.1l5.3-1-3.3-5.2zm-59.4 6.4h-7.3v2.1h6.3l4.1-3.1 1 1v-5.1q-4.1 1-4.1 5.1zm-42.8-4.1h-3q0 2.1-4.1 2.1v3h1l6.1-3zm139.7 1l-3.3-1v2h3.3zm32.2 2.1l-2.1 2v3.1h5.3v-1.1q-3.2 0-3.2-4zm-110.4 7.1l2-7.1h1.3l5.1 6.1q-0.8 3.7-6.4 6.4h-2zm-56.1-2.1l-4.3-2-2.1 5.3 1 1h3.3l2.1-2.2zm21.7 5.3h-1v1h2.2l-1.2 5.1h3.3l5.1-1v-3.1q-3.1-3-3.1-7.3zm-8.2-3.3h-4.3v2.2l1.2-1h1.1l1 1h1zm147.9 0l-3.1 1.3v1l3.1 3.1 1-1.1v-1zm-70.9 6.4h-1v4.1h2.1zm46.9 1l2-2.1h1v2.1zm-102 0h-3.2v2l3.2-1zm129.1 1l-3.1-1-2.1 3.1h2.1l1-1h1l1.1 1zm-9.5 0h-3q0 2 5.3 2v2.3h1v-2.3zm-144.6 6.4h-3.2v2q2 0 2 4.1h1.2l1.1-1h1q0-3.1-3.3-3.1l1.2-1zm-18.8 1l-9.4 1.1 8.4 7.1 1-7.1zm29.1 5.1v5.3q3.2 0 3.2-5.3l3.1 2v-1l-1-1v-1l1-3.1h-1q-4.7 2-5.3 4.1zm133.3-2.1h-2.1v1.1l1.1 3h2zm19.9 0l-3.1 1.1v1h3.1zm7.3 6.3h-6.3v2.1l9.4-3.3-1-4.1q-2.1 0-2.1 5.3zm-38.7-4.3h-1v2.1h3.3zm6.3 2l-2 2.3 1 1h1zm9.5 2.3h-2.3l-1 4.1h3.3zm-9.5 2h-1l3.1 3.1v-1zm38.5 4.1l-2.1-2.1v4.1zm-178.1 2.1h-5.1l-2.1 2v1l7.2-1zm5.3 0h-4.1v1l1 1.1-1 1v3.3l1-1.1h1.1q0 3.1 3 3.1l1.1 3.1q4.7-2.1 5.1-4.1h-6.2v-2.1l1.1-1v-1.2h-1.1l1.1-1v-2.1l-1.1 1zm163.4 0h-2q2.5 4.5 5.3 5.4v-3.3q-3.3 0-3.3-2.1zm-9.4 6.4v2q1.7 4.1 3.3 4.1h1q0-5.1-4.3-6.1zm36.5 3.1l-2.1 2h1.1l2.2-2zm-190.4 16.6l-7.4-5.2v2.1q0 2.5 7.4 4.1zm171.8-2.1l-6.4-3q1.3 8.4 3.3 8.4 6.1-1.1 6.1-3.3v-1l-2-2.1zm13.5 2.1l-3.1-3.1v2l3.1 3.3zm-184.3 6.4l4.1 3.1q2.9-0.7 5.3-5.2v-3.3q-9.4 3.5-9.4 5.4zm-16.6-3.1l-6.3 3.1-1.1-1v1l2.1 3.1q0 3-4.1 3l1 1.1v2.2q0 3.1-4.1 3.1v1h2.1l1-1q0 2 3.1 2v1.1l-2.1 3v1.1l2.1 2.2h1q0-3.3 3.1-3.3 5.3 1.1 5.3 5.4 20.9-5.2 20.9-9.5h-2.3l-1-1-1 1q0 3.1-7.2 4.1v-7.1h-1q-3.9 3-7.4 3l-1-1v2.1l-1-1.1h-6.4v-2l1-1-1-1.1v-2l8.4-4.3h1v-3.1l-1-1v-1l-1 1h-1q-2.1 0-2.1-3.1zm155 5.1h-3v1.1l3 1zm34.4 2h-1l-2 2.1v1h2l1-1zm-8.4 5.3h-2v1l2 2.1zm-10.2 9.2l-7.4-1v2l3.1 1.3 4.3-1.3zm17.6 0h-2l1 4.3h1zm-58.3 9.5l1 3h1v-6.1q-2 0-2 3.1zm-23-2.1v3.1h-2v-3.1zm41.8 2.1l-5.4-1.1v3.1q5.4 0.8 5.4 5.3h2v-2q-2 0-2-5.3zm30.1 0h-7.2v2l-2.3 2.1h-6.1v1.2q0 1.4 4.1 3.1 1.6-4.3 3.3-4.3h1l5.1 4.3h1q0-2.1-3-2.1v-4.3l4.1-1zm-62.5 4.1v1.2h1l2.1-4.3h-1.1q-2 0-2 3.1zm-94.8 10.4l-11.5-11.4-1 1v1.2l7.4 6.2 3 3zm-33.1-7.1l-1.1 1v3.1l4.1 1v-1l1 1h3.1l2.1-2.1q-6 0-9.2-3zm13.5 0l-2.1 2 1 1h3.1v-1zm117.6 3.1l-3.1 3.1v1l4.1-2.1v-2zm12.5 1l-7.2 2.1v1l3.1 1 4.1-3.1zm-35.2 1.1h-3.3l3.3 3zm52 6.4h-2.1v1q1.9 3.7 6.2 5.1v-1zm-145.8 2.1l-2.1 2 1 1h1.1zm13.5 0h-3.1l1 5.2h5.1v-1.1zm80.3 0h-2.2v4.1h3.2v-1zm33.2 4.1l-4.1-1-6.3 5.3h-1l-1.1-1.2h-1v1.2l1 3.1-2 2 1 1.1 13.5-8.4zm33.4 0v2h-6.3v-2zm-14.6 2v3.3h2.1v6.1q2 0 2-3-2.4-6.4-4.1-6.4zm-158.3 3.3l-2-2.3v1.3l2 2zm25-2.2l-2 2.2 1 3.1h1zm159.3 0h-3v1.2l2 2.1 2-2.1zm-40.5 5.3h-2.3l-1 5.2h1l6.4 3.2 2-2.2v-2.1l-2-2-2.1 2q-2 0-2-4.1zm-37.5 3.1l-2.2-2v1l2.2 2zm18.7-1h-1.1q0 2.1-3 2.1v3l4.1 1.3zm-112.5 2v3.1h-2v-3.1zm95.8 2.1h-2l1 1v1.2l-1 1.1 1 1h3.1zm22.9 4.3h-2.2v2h4.3zm-92.8 3.1l-3.1 1v2.1h4.1v-3.1zm-15.6 9.4h-2l-3.3-2v3.1l4.3 1-2.2 8.4 6.3-2.3 4.1 3.3q0-2 4.3-2-1.8-5.4-6.3-5.4l-1.1 1.1-1-1.1v-1q0-7.4 7.4-8.4l1-1v-2.1h-6.3q-1.7 0-5.2 8.4zm172.9-7.3l-2.1 2 1.1 1h2zm-152.1 5.4l-5.2-1.3-1 1.3v1l5.1 3.1 1.1-1.1zm93.7 6.2l4.1-3.1h3.3v4.1l-2 6.4h-2.3zm43.8 1q0 2 4.1 2v1.1h-2v2.2l1 1-1 3.1h-8.4l-2.1-2q0-7.4 8.4-7.4zm-140.6 5.3h-2.1l1 6.2h1.1v-2.1h1zm-42.6 2.1v6.1q-3.3 0-3.3 3.3l1.2 3.1q4.1-2.3 4.1-5.4l3.1 2.3h5.3v-3.3l-1.2 1h-2v-2l-1.1 1h-1q0-4.3-5.1-6.1zm29.1 0l-2.1 2 1 3.1-1 1q1.7 0 3.1 4.3-0.8 5.3-6.2 7.2v1h2.1q7.2-5.3 7.2-10.4h-1.1l-2-2.1v-1l1-5.1zm155.2 7.1l2.1-2h2l1.1 6.3-4.1 1.1-1.1-1.1zm-37.4 4.3v-2h3v1l-2 2.1zm-135.4 5.1l-2.2 2 8.4 2.1v-2.1l-4.1-2zm197.8 9.4v3.1h-2.1v-3.1zm1.1 2.1l2-2.1h2.1l2 2.1v4.1l-2 2.2h-2.1l-2-2.2zm-185.4 1l-2 2v2.1l5.1-1-1-3.1zm172.8 1l6.2-2q4.3 0 4.3 9.4l3-2.1h1.1q7.5 0 9.4 17.7l5.1 14.5-1 1.1h-5.1q-2.1 0-2.1-10.3l-1.2-1.2h-2.1q0.9 25.2 7.4 27.2l1 3.1-1 1h-10.4q0-3-2.1-3-2 0-2 3h-1.1q-3.2-1-3.2-6.3v-2.1h2.2q0-2-3.3-2v-2.1q3.3-3.9 3.3-9.4v-2l-3.3 2 1.1 1v3.3h-3.1q-5.1-4.3-5.1-6.3l-8.4 1-5.1-3.1h-2.3v3.1q10.5 0 10.5 8.4-4.8 2-5.2 4.1l1.1 1-1.1 1q-13.5 0-13.5-8.2l1-3.2-1-1.1-1 1.1h-4.3q-2.1 0-4.1-10.3v-1.2l10.4-10.3-1-3.3 5.1 2.3 2.1-3.3q-4.1 0-4.1-3.1h-6.4q0-3-3-3v-1.1q3-3.4 3-6.3h9.5q0 7.6 10.4 9.4 0 1.9 9.4 5.1 0 2.3 3.1 2.3l-1 5.1v1.1h8.4v-2.1h3l6.2 2.1v-1.1l-3.1-5.1-1 1q-5.9-0.8-9.4-5.3h-8.2v-2.1q-4.7 0-6.4-9.4l1.1-1h6.3zm-45.9 10.4v-1h1.1q0 2.1 3 2.1l1.3 5.3-1.3 1h-3zm-106.3 7.4l2.2-2h4.1l1 1h1.1l-1.1 6.1h-5.1l-2.2-4.1zm148 4.1h-2.2q0 2.7-4.1 3.1l1 3.3h1l1.1-1.2h1l1 1.2 1.2-1.2zm-198 2l2.3-2h2l1 4.1-1 1h-4.3zm159.3-2.1h1.1l3.2 2.1-1 3.1 1 5.3h-3.2l-2.1-9.4zm-113.4 1h4q0 2 3.3 2l1 1.1v3.2q-3 0-4.3 5.2h2.3l1-1.1q2.7 0 5.1 5.2l-1 1 2.1 2.2-3.1 3.1v1l-9.4-1 1-1-3.1-10.5-1 1.1h-2l1-1.1-1-5.1v-2.2h2q0-3.1 2.1-3.1zm169.7 3.1l-3.1 1v1.2h4.1v-2.2zm-179.1 15.7h1q11.4 6.6 11.4 11.5l-5.1 2.1 1.1 1v2h-11.5l-5.1-1v-6.3l2-2.1h2.1v2.1h7.3v-2.1l-5.3-1v-2.1q2.1 0 2.1-4.1zm188.6 4.1l2-2h3.1l5.3 5.1v1l-7.4 1.1-3-1.1zm-208.3 3.1l7.2-3.1 3.2 3.1v1q-3.4 5.4-10.4 5.4v3h-8.4l-2-2q2.6 0 6.1-6.4l1-1v-1h2.3zm152.9 1l2.1-2h6.3l1.1 5.3-4.1 4.1h-2.3l-3.1-3.1zm-172.8 4.3l2.1-2.2h3.2l3.1 3.2-1 3.1h-4.3l-3.1-3.1zm58.4 0l2-2.2h1l2.1 2.2v2.1l-2.1 2h-1l-2-2zm-4.1 2v2.1h-4.3v-2.1zm141.5 0v2.1h-6.2v-2.1zm182.1-291.8l1 1v45.7l-5.9 4.1v1l3.1 1.1q0-3.1 1.8-3.1h1v2l-25.8 9-17 13-8-2.1q2.1 4.5 4.1 4.9 0-2.8 1.9-2.8v1.8q-17 20.5-21.7 51.9l-1.1-1.1h-3q0 2.1 3 2.1l1.1 1v2.1q0 11.8-3.1 11.8h-1l1 1.1v2l-2.1 1.9-2.8-1.1-1 1.1v1l1 1h1l2.9-1q3.7 3.7 6.9 30.9l-2.8 2.9h-1.1v1h1.9v-1q5.1 0 5.1 9l-1 1.1q2.2 0.6 16 25 0 2.2 20.8 15.7l16.8 4.1v2.9l-1 1v1.1l-0.8-1.1h-2.1v3.1h-2v-1l1-1v-1.1l-5.9-1q-3.1 9-11.1 9v2.1q3.1 0 3.1 3.9v1l3.9-1-0.8-1.1v-0.8q4.9 0 4.9-2v-2.1l-1-2.8h1l3.9-1.1h2l7 1.9v-0.8q4.1 1.4 4.1 2.8l-1 1.1v1h1l-1 1v2.9l1 1v1l-1 1h-1.1l-2-2q0 2-3.1 2l-0.8 5h0.8l4.1-1.1q0 2.1 3.9 2.1v2l-1.8 5h-1.1l-4.1-2.1-3.9 3.1v2h2.1v3.9l-2.1 2.1-4.1 1v-3.1h2.1v-2l-2.9-0.8q6-7.4 6-11.1-2.3 0-7 8l1 1h-1l-3.1-2h-1l-1.8 2q0 2.9 3.9 2.9l-1.1 3.1 1.1 4.9-1.1-1.1h-1v1.1q3.1 0 4.1 6.9h-2v1.1l-17.9-3.9 0.9-5.2-6-1.8-2 1.8q0-3.8-2.9-3.8h-1q0 3.8-3.9 3.8-18-5.5-42.8-30.7l0.8-4.1-0.8-1h-1l-2.1 2-14.9-20.9 1-3.1h-1q-3.7 0-12.9-26.8 0-9 6.9-9l-1-4.9q2.1 0 2.1 3l1-1h0.8l1 1v-3h3.1l2 2-3 2.9 1 1v2.1l-1-1.1h-1.1l-1 7 5.1 1v-1q6.2 0 9.9 5.9l-1.1 1.1 1.1 1h2l-2-6h1l3.1 1.1v-1.1l2.8 2.1 1.1-1h2v2l2.1-2v-1.1l-1.1-1v-1l1.1-1-1.1-1.1h-1q0 4.1-3.1 4.1h-1q-4.5-4.9-7-4.9l-1.8 1.9h-4.1q-2-0.4-3.9-4.9 0-5 4.9-8l1.1 1v-1l3.8 2 1.1-1v-1l-1.1-1.1 2.1-3.9-1-1 1-1h-2.1l-0.8 1h-1l-3.1-1v1l-2 2.1v-1.1l-6 2.1h-9v1.8h-4.9q-3.9 0-3.9-14.9l4.9 3h3.1v-2l-1-4.9 2.9-3.1h-1.1l-3.9 3.1-2-4.1 1-0.8-3.9-2.1q0.6 6 1.9 6l-0.8 3q-3.1 0-3.1-21.9 0-24 3.1-24l-1.1-1v-1q2.7-30.6 25.8-67.7 43.4-51.8 105.5-51.8zm12.1 2l1.8-2q45.9 0 88.7 34.8 26.6 28.1 30.9 47l-2 2.8v2.1l2 2v-6.1q2.7 0 6 17h-2.1v-2.9q-2 0-2 6-1.9 0-1.9 4.9l-1 1h-13.9l-7-5.9h-1l1 1v4.9l-4.9 2.1h-5.1v-2.1h-2.1v2.9l3.1 4.1h-1l-1.1-1.1h-1v5l-12.9-3.9v2q0 2.9 12.1 2.9 0 1.6 5.9 4.1l2.9-1 1 1v-1l1.1 1h1l3.9-1 4.1 1 2-3.1q-3.1 0-3.1-4.9l-3.8 1-3.1-1v-2.1q0-5.5 4.9-6.9l2 4.9-1 1v2.1h1q0-2.7 7-4.1l1 1v3.1q-2.6 0-3 4.9h2v-2.1q3.1 0 3.1-3.9l0.8-1v-1h-1.8v-1h1.8l1 1h1l10.1-4.9 2 3.1-1 2.8q2.9 0 2.9 11.1l-2.9 4.9-1-1h-2.1q0 2.7-4.9 3.1l-1 1v1.8l7-2.8-1.1 1v1.8h4.9l2.1 2.1-1 1v1l2 1.9-1 1 1 5.1-1 6q-2.1 0-2.1-4.1h-3.8v4.1l-1.1 4.9-3.9-1-3 1 1 3.1 3.9-2.1v2.1h3.1l1-1.1h1v1.1l-1 2.8h4.9q0 39.8-33.8 85.7-44 44.9-98.5 44.9v-2.1q2.9 0 2.9-1.8h-3.9v-13.9h1.8v-6.2h3.1l3.1 2.1h0.8l4.1-2.1-6-8v-3.9q0-10.6 8-11.9l-1-1 1-1v-3.9l-5.1 0.8v-2.9l9-2v1l-1 1v1.1h2q0-4.1 16-12.1 11.9-9.9 11.9-12.9h7v-1.1l-1.1-1v-0.8l-1 0.8h-1.8v-0.8q0-1.7 8.8-7v-3.1l-0.8-4.9 0.8-1h2l1 1 1.1-1h1q2.9 0 2.9 2.9h1v-3.9h-4.9q-2.1 0-2.1-3.1l1-7h1.1l2.8 2.1h1.1l-1.1-1q0.6-5 3.1-5v-2q-3.9 0-3.9-2.1v-5.9l0.8-1v-0.8l1.1 0.8h2q0-1.9 3.1-1.9l0.8-5.1h-1.8v2.1l-2.1 2h-3.1v-1q0.6-11.1 2.1-11.1h2v-0.8l-3-5.1v-5h2v-1l1 1h1.1q2.8 0 2.8-3h1v2h10.1l3.9-1 12.1 3.1q4.3-4.9 7.7-4.9l2.1 1.8h1v-1q-3.1 0-3.1-1.9h1.1l-2.9-4.1q-1 2.7-11.1 5.2l-1.8-2.1h-2.1l-1 1h-1l-1-1v-1l2-6-5.9 2.1h-3.1l-1-1-1 1h-0.9q-1.4-2.1-12-2.1l-2.9-12.9q1.8 0 1.8-4.1l5.2-1-11.1-9.8 1-1.1v-1l-11.9-19.9q-14.7-18-37.8-25-11.9-1.4-11.9-3.9zm75.5 30.8h-3.8v1q1.8 0 1.8 3.1h2zm-168.1 16l-4.1 2v2.9q4.3-2.3 4.9-4.9zm205 40.7l-1-0.8q0 2.9-4.9 2.9v1h3.9l5.9-2v-1.9h-1.8l-1.1 0.8zm-233.8 5.2v2h-3.1v-2zm44.7 19.9h-1.9q0 2-3.1 2v1.8h1.1zm-18.9 2.1v1.8h-3v-1.8zm189.2 3.9l1.8-2.1v1.1l-1.8 2zm0 4.9h-2.1v3.1h1.1zm-215.1 1h-3v2.1l2 2 1-1zm8.8 5.1l-2.8-1v2.1h2.8zm227.1 1l-5.1 0.8 1 1v1.1l1.1-1.1h4.1q1.8 0 1.8 4.1l1 1.1h1.1l1-1.1-1-5.9zm-242.9 3.9l-3.1-2.1v2.1l3.1 1zm194.9-2l1.1-1.1 6.9 2.1-1 1v2.1l1 1v0.8l-1 1q-7 0-7-6.9zm-175.1 2h-1v1l1 2.9q-3.2 2.5-9 3.1 0-2.5-3.9-3.1l-1 1v1q8 0 8 10.1h-1q-2.1 0-2.1 2.9-8 3.4-8 5.1h1.1q9-2.1 9-6.2l5.9-0.8v0.8l1-0.8h2.1l-1 0.8v1.1l1 1 0.8-1h1l2.1 2-1 1h4.9v-1l-0.8-3.1h1.8v2.1h3.1l-1.1-1v-1.9h1.1l3.9 2.9 3-1-1-1.1v-0.8l1-5.1h-5.9v-1.9h-1v1.9q-7-1.4-7-4.9v-1.1l-1 1.1h-1q-3.5-2.3-5-7zm232.9 3.9h-1.9l-1 5.1 2.9 1 3.1-1 1 1v0.9l2.8-0.9v-4.1h-0.8q0 3.1-2 3.1-4.1 0-4.1-5.1zm-251.9 8l-0.8-1v3l2.8-1v-2l-1 1zm205.2 4.1h-2q0 2.9-2.1 2.9l-0.8-1.1h-1v1.1q0 2.4 10.8 4.1 0 2.8 2.1 2.8l1-1v-0.8q-3.1 0-3.1-4.1l-1 1h-1q-2.7 0-2.9-4.9zm-205.2 8h-1.8v1.8h3.9zm12 0h-1l-1 3.9q2 0 2-3.1zm225.9 0l-2.8 0.9v1h4.9zm-17.8 0.8l-3.1 2.1-1-1.1h-1.1l-0.8 1.1v2l0.8-1h3.1l3.1 2v-5.1zm-211.2 4.1l-1.8 2.1v1l2.9-3.1zm207 1h-1v1.1l1 2.8-1 1.1h3.1v-1.1zm13.1 3.9l-4.1-1 1 3.1h3.1zm25.8-1.1h-2.1l-1 3.1h3.1zm-209.1 3.1l-4.9 1 1 1v1.1l4.9-1.1v-2zm-8 2l-2.8 1.1 0.8 2.8 4.1-3.9zm-11.9 1.9l-4.1 3.1-2.9-1.1h-1v1.1l7 3.9h1l-1-5 2-2zm174.3 2h-2.1v1.1l1.1 3h2.8zm-162.4 6h-2q0 3.1-1.9 3.1l-4.1-1.1v1.1l-1-1.1h-0.8l-4.1 6 1 4.1h1.1q0-4.1 4.9-6.2h3v1.1h-2l3.1 5.1h4.9l1-1h1l3.9 3.8h1q-6.1-9.8-9-9.8zm167.3 2.1h-1l-1 3.9h3.1l3.9-1.9-1.1-1v-1l-1 1h-1.8zm-217.1 6.9l-1-4.9h1l4.1 1.1v0.8l-3.1 3zm34.8-2l-4.9-1-1 3 1 3.1h1l1.1-3.1 2.8 1.1zm-23.7 10l-4.1-1-1 1v1l10 6v-2.1q0-3.4-3.1-5.9l-1 1zm200.1-1h-1l2 2h0.8zm-142.3 4.1l-3.1 0.9v1h3.1zm134.3 8.8l1.1 3.1h1l1.8-2.1v-2l-1.8-1.9q-2.1 0-2.1 2.9zm20.9-2.9l-2 1.9 1 1-1 1h3zm-148.2 1.9h-1v2l1.8 2.1 2-2.1zm-38.9 4.1l-2 2.1 4.1 0.8 1.8-2.9zm176.1 2.1l-3.8-1.1v1.1l1 0.8h2.8zm-15.7 2.9l1 3h0.8l2.1-2v-2.1l-2.1-1.8q-1.8 0-1.8 2.9zm-127.6 2l1 1v1.1l-1 2.8 1 1h2.1q0-5.1-3.1-5.9zm12.1 5.9l-4.1-1-4.9 4.9 9-2.8zm-40 1h-2.8l1 3.9h1.8l2.1-1.9v-2l-1 1zm-16.8 6h-2.1v3h1l2.9-1zm36.9 0h-2.1v4.1h1.1zm43.6 0h-0.8l0.8 1v1.1h-1.9v2l2.9-2 1 1v-1zm-75.5 2h-1.1v2.9l1.1 1h1v-1zm51.8 8l-7-7v3.9q0 4.9 4.9 7h2.1zm-43.8-2.1l-2.1 2.1 2.1 1.8 1-0.8v0.8l2.9-0.8-1.1-3.1zm16 2.1l-4.1 1.8 2.1 2.1h2l1-3.9zm85.6 2.8l1.9-1.8h2l-1 4.9h-1l-1.9-2zm-90.7 1l-2.9 3.1h1.1l1.8-2.1zm9 0v3.1h-2v-3.1zm4.1 4.1h-3.1l1 0.8-1 1.1v1l2 2 2.9-1v2.1h1q0-2.1 4.1-2.1l1.9-2v-1.9l-2.9 1.9zm95.4 1.8h-2.8v1l2.8 1.1zm-17.8 12.9v-9.9h1.9v8zm-82.8-2.8l-4.9-2.1v1q2.1 4.9 7 4.9h4.9v-1l-4.9-0.8-3.1 0.8 1-0.8zm15-1h-1l-1.9 3.1h1.9zm107.5 1l-2.1 2v0.8h2.1l1-2.8zm-88.5 5.9l-4.1-1v1l1.1 1h3zm10.9-1h-3.9l1.8 5.1h4.1v-2q-2 0-2-3.1zm-34.8 1l-1.1 1.1-1 3h1l3.9-2v-1h-1.8zm29.9 4.9l-4.1-0.8-1 0.8v1h2l-1 1v1.1h4.1zm30.7-1.9h1v8l-1 0.8v1.1l-2.9-1.1q1.3-8.8 2.9-8.8zm28.9 6l-1.9-2.1-1 1v2.1l2.9 1zm-41.8 7l7-3.1q5.9 0 5.9 5.1l1 2.9h-1l-8 1v-1l-2.8-3.9-1.1 1h-1z"/>
	<path class="s0" d="m390.8 152.8c25.1 39.4 49.8 81.8 62.9 126.9 14.7 50.6 6.5 101.6-18.8 147.5q-1.2 2.2-2.5 4.4-1.3 2.1-2.6 4.3-1.4 2.1-2.8 4.3-1.3 2.1-2.8 4.1-1.4 2.1-2.9 4.2-1.5 2-3.1 4-1.5 2-3.1 4-1.6 1.9-3.2 3.9-1.7 1.9-3.4 3.8-1.7 1.9-3.4 3.7-1.7 1.9-3.5 3.7-1.8 1.8-3.6 3.5-1.8 1.8-3.7 3.5-1.8 1.7-3.7 3.4-2 1.6-3.9 3.2-1.9 1.7-3.9 3.2-2 1.6-4 3.1-2.1 1.5-4.1 3-2.1 1.5-4.2 2.9-2.1 1.4-4.2 2.8-2.1 1.4-4.3 2.7-2.1 1.3-4.3 2.5-2.2 1.3-4.4 2.5-2.3 1.2-4.5 2.4-2.3 1.1-4.6 2.2-2.2 1.1-4.5 2.2-2.3 1-4.7 2-2.3 1-4.7 1.9-2.3 0.9-4.7 1.8-2.4 0.9-4.8 1.7-2.4 0.8-4.8 1.5-2.4 0.8-4.8 1.5-2.5 0.7-4.9 1.3-2.5 0.6-4.9 1.1-2.5 0.6-5 1.1-2.5 0.5-5 0.9-2.5 0.5-5 0.8-2.5 0.4-5 0.7-2.5 0.3-5 0.6-2.6 0.2-5.1 0.4-2.5 0.2-5 0.3-2.6 0.2-5.1 0.2-2.5 0.1-5.1 0.1-2.5 0-5-0.1-2.6 0-5.1-0.1-2.5-0.1-5-0.3-2.6-0.2-5.1-0.5-2.5-0.2-5-0.5-2.5-0.3-5-0.7-2.6-0.3-5.1-0.8-2.4-0.4-4.9-0.9-2.5-0.5-5-1-2.5-0.6-4.9-1.2-2.5-0.6-4.9-1.2-2.5-0.7-4.9-1.4-2.4-0.8-4.8-1.6-2.4-0.7-4.8-1.6-2.4-0.8-4.8-1.7-2.4-0.9-4.7-1.9-2.3-1-4.7-2-2.3-1-4.6-2.1-2.3-1-4.5-2.2-2.3-1.1-4.5-2.3-2.3-1.2-4.5-2.4-2.2-1.3-4.4-2.6-2.1-1.3-4.3-2.6-2.1-1.4-4.2-2.8-2.1-1.4-4.2-2.8-2.1-1.5-4.1-3-2-1.5-4-3-2-1.6-4-3.2-2-1.6-3.9-3.3-1.9-1.6-3.8-3.3-1.8-1.7-3.7-3.5-1.8-1.7-3.6-3.5-1.8-1.8-3.5-3.6-1.8-1.9-3.5-3.7-1.7-1.9-3.3-3.8-1.7-1.9-3.3-3.9-1.6-2-3.2-3.9-1.5-2-3-4.1-1.5-2-3-4.1-1.5-2.1-2.9-4.2-1.4-2.1-2.7-4.2-1.4-2.1-2.7-4.3-1.3-2.2-2.5-4.4-1.3-2.2-2.5-4.4-1.2-2.3-2.3-4.5-1.1-2.3-2.2-4.6-1.1-2.3-2.1-4.6-1.1-2.3-2-4.6-1-2.4-1.9-4.7-0.9-2.4-1.8-4.8-0.8-2.4-1.6-4.8-0.8-2.4-1.5-4.8-0.8-2.4-1.4-4.9c-7-24.4-10-50.1-6.4-75.4 13.3-92.9 110-205.9 156.2-289.1 1.2 3.1 0.4 166.6 0.3 186-31.6 13-59.2 37.9-72.7 69.5-14.6 34.1-14.9 70.8-1.1 105.2 12.8 31.9 39.9 57.4 71.3 70.7q2.9 1.2 5.9 2.3 3 1.1 6.1 2 3 1 6.1 1.8 3.1 0.8 6.3 1.4 3.1 0.6 6.3 1.1 3.1 0.5 6.3 0.8 3.2 0.4 6.4 0.5 3.2 0.2 6.4 0.2 3.2 0.1 6.3-0.1 3.2-0.1 6.4-0.4 3.2-0.3 6.4-0.7 3.1-0.5 6.3-1.1 3.1-0.6 6.2-1.3 3.1-0.8 6.2-1.7 3.1-0.8 6.1-1.9 3-1 6-2.2 3-1.2 6-2.6 2.9-1.4 5.8-2.9 2.9-1.5 5.7-3.1 2.8-1.7 5.6-3.5 2.7-1.7 5.3-3.6 2.6-2 5.2-4 2.5-2.1 5-4.2 2.4-2.2 4.7-4.5 2.3-2.2 4.6-4.6 2.2-2.4 4.3-4.9 2.1-2.5 4-5.1 2-2.6 3.8-5.3 1.8-2.7 3.5-5.5 1.7-2.8 3.3-5.7 1.6-2.8 3-5.8 1.4-2.9 2.7-5.9 1.2-3 2.3-6 1.2-3 2.1-6.1 1-3.1 1.8-6.2 0.8-3.1 1.5-6.3 0.6-3.2 1.1-6.3 0.5-3.2 0.9-6.4 0.3-3.3 0.5-6.5 0.2-3.2 0.3-6.4 0-3.3-0.1-6.5-0.2-3.2-0.4-6.4-0.3-3.2-0.8-6.4-0.4-3.2-1-6.4-0.6-3.2-1.3-6.3-0.8-3.2-1.7-6.3-0.9-3.1-1.9-6.1-1.1-3.1-2.3-6.1c-14.2-34.7-40-59.4-74.4-73.9-1.2-26.7-0.3-53.9-0.3-80.7 0-35.2-0.6-70.5 0.2-105.7 11.2 20.9 24.5 40.7 37.6 60.4z"/>
</svg>